# Driftstead original procedural art; OBJ uses Y-up for FBX importer
o RopeCoil
vt .5 .5
v 23.39582 4.00000 -0.16858
v 22.40011 1.59594 -0.14121
v 19.99845 0.60014 -0.03112
v 17.59770 1.59594 0.09720
v 16.60418 4.00000 0.16858
v 17.59989 6.40406 0.14121
v 20.00155 7.39986 0.03112
v 22.40230 6.40406 -0.09720
v 23.26058 4.02200 -2.76929
v 22.26830 1.61794 -2.68225
v 19.87758 0.62214 -2.42825
v 17.48885 1.61794 -2.15609
v 16.50141 4.02200 -2.02518
v 17.49368 6.42606 -2.11223
v 19.88441 7.42186 -2.36622
v 22.27313 6.42606 -2.63839
v 22.78606 4.04400 -5.53993
v 21.81135 1.63994 -5.33469
v 19.46823 0.64414 -4.79628
v 17.12927 1.63994 -4.24009
v 16.16460 4.04400 -3.99194
v 17.13930 6.44806 -4.19718
v 19.48242 7.44386 -4.73560
v 21.82138 6.44806 -5.29178
v 21.98238 4.06600 -8.23671
v 21.03926 1.66194 -7.91622
v 18.77747 0.66614 -7.10114
v 16.52191 1.66194 -6.26894
v 15.59388 4.06600 -5.90710
v 16.53699 6.47006 -6.22759
v 18.79879 7.46586 -7.04267
v 21.05434 6.47006 -7.87487
v 20.86041 4.08800 -10.82062
v 19.96247 1.68394 -10.38950
v 17.81453 0.68814 -9.30948
v 15.67483 1.68394 -8.21322
v 14.79678 4.08800 -7.74290
v 15.69473 6.49206 -8.17402
v 17.84267 7.48786 -9.25404
v 19.98236 6.49206 -10.35030
v 19.43565 4.11000 -13.25420
v 18.59579 1.70594 -12.71865
v 16.59262 0.71014 -11.38923
v 14.59955 1.70594 -10.04469
v 13.78411 4.11000 -9.47266
v 14.62397 6.51406 -10.00821
v 16.62714 7.50986 -11.33763
v 18.62021 6.51406 -12.68216
v 17.72796 4.13200 -15.50209
v 16.95828 1.72794 -14.86982
v 15.12868 0.73214 -13.31012
v 13.31092 1.72794 -11.73664
v 12.56981 4.13200 -11.07111
v 13.33949 6.53606 -11.70338
v 15.16909 7.53186 -13.26308
v 16.98685 6.53606 -14.83656
v 15.76133 4.15400 -17.53151
v 15.07291 1.74994 -16.81162
v 13.44322 0.75414 -15.04408
v 11.82691 1.74994 -13.26430
v 11.17079 4.15400 -12.51484
v 11.85922 6.55806 -13.23473
v 13.48891 7.55386 -15.00227
v 15.10522 6.55806 -16.78205
v 13.56356 4.17600 -19.31276
v 12.96629 1.77194 -18.51561
v 11.55995 0.77614 -16.56567
v 10.16834 1.77194 -14.60518
v 9.60665 4.17600 -13.78258
v 10.20391 6.58006 -14.57973
v 11.61026 7.57586 -16.52967
v 13.00187 6.58006 -18.49016
v 11.16579 4.19800 -20.81967
v 10.66828 1.79394 -19.95673
v 9.50552 0.79814 -17.85244
v 8.35863 1.79394 -15.73945
v 7.89945 4.19800 -14.85552
v 8.39695 6.60206 -15.71846
v 9.55971 7.59786 -17.82276
v 10.70660 6.60206 -19.93575
v 8.60214 4.22000 -22.02994
v 8.21156 1.81594 -21.11364
v 7.30910 0.82014 -18.88527
v 6.42343 1.81594 -16.65017
v 6.07335 4.22000 -15.71764
v 6.46393 6.62406 -16.63394
v 7.36638 7.61986 -18.86232
v 8.25206 6.62406 -21.09742
v 5.90919 4.24200 -22.92553
v 5.63114 1.83794 -21.96905
v 5.00199 0.84214 -19.64865
v 4.39027 1.83794 -17.32360
v 4.15433 4.24200 -16.35587
v 4.43237 6.64606 -17.31235
v 5.06153 7.64186 -19.63275
v 5.67325 6.64606 -21.95780
v 3.12545 4.26400 -23.49286
v 2.96394 1.85994 -22.50996
v 2.61713 0.86414 -20.13093
v 2.28817 1.85994 -17.74936
v 2.16976 4.26400 -16.76035
v 2.33126 6.66806 -17.74325
v 2.67807 7.66386 -20.12228
v 3.00704 6.66806 -22.50385
v 0.29082 4.28600 -23.72307
v 0.24818 1.88194 -22.72790
v 0.18870 0.88614 -20.32446
v 0.14722 1.88194 -17.92064
v 0.14805 4.28600 -16.92456
v 0.19069 6.69006 -17.91973
v 0.25016 7.68586 -20.32317
v 0.29164 6.69006 -22.72699
v -2.55398 4.30800 -23.61213
v -2.47714 1.90393 -22.61902
v -2.24843 0.90814 -20.22574
v -2.00182 1.90393 -17.83425
v -1.88178 4.30800 -16.84543
v -1.95862 6.71207 -17.83854
v -2.18733 7.70786 -20.23181
v -2.43394 6.71207 -22.62331
v -5.36800 4.33000 -23.16092
v -5.17279 1.92593 -22.18416
v -4.65917 0.93014 -19.83548
v -4.12803 1.92593 -17.49071
v -3.89049 4.33000 -16.52337
v -4.08570 6.73407 -17.50013
v -4.59931 7.72986 -19.84881
v -5.13046 6.73407 -22.19358
v -8.11063 4.35200 -22.37522
v -7.79986 1.94793 -21.42887
v -7.00874 0.95214 -19.15858
v -6.20069 1.94793 -16.89426
v -5.84907 4.35200 -15.96232
v -6.15985 6.75607 -16.90867
v -6.95097 7.75186 -19.17895
v -7.75901 6.75607 -21.44327
v -10.74224 4.37400 -21.26565
v -10.32037 1.96993 -20.36332
v -9.26312 0.97414 -18.20409
v -8.18981 1.96993 -16.05279
v -7.72916 4.37400 -15.16964
v -8.15102 6.77807 -16.07196
v -9.20828 7.77386 -18.23120
v -10.28159 6.77807 -20.38249
v -13.22467 4.39600 -19.84750
v -12.69779 1.99193 -19.00219
v -11.38962 0.99614 -16.98507
v -10.06647 1.99193 -14.97775
v -9.50342 4.39600 -14.15608
v -10.03031 6.80007 -15.00139
v -11.33848 7.79586 -17.01851
v -12.66163 6.80007 -19.02584
v -15.52187 4.41800 -18.14056
v -14.89755 2.01393 -17.36443
v -13.35728 1.01814 -15.51845
v -11.80333 2.01393 -13.68396
v -11.14599 4.41800 -12.93560
v -11.77030 6.82207 -13.71173
v -13.31057 7.81786 -15.55772
v -14.86452 6.82207 -17.39220
v -17.60036 4.44000 -16.16881
v -16.88759 2.03593 -15.47302
v -15.13738 1.04014 -13.82473
v -13.37499 2.03593 -12.18948
v -12.63279 4.44000 -11.52518
v -13.34555 6.84407 -12.22097
v -15.09576 7.83986 -13.86926
v -16.85816 6.84407 -15.50451
v -19.42974 4.46200 -13.96008
v -18.63878 2.05793 -13.35465
v -16.70382 1.06214 -11.92777
v -14.75832 2.05793 -10.51528
v -13.94194 4.46200 -9.94459
v -14.73290 6.86607 -10.55002
v -16.66787 7.86186 -11.97690
v -18.61336 6.86607 -13.38940
v -20.98314 4.48400 -11.54569
v -20.12538 2.07993 -11.03934
v -18.03349 1.08414 -9.85440
v -15.93289 2.07993 -8.68498
v -15.05407 4.48400 -8.21611
v -15.91184 6.88807 -8.72247
v -18.00372 7.88386 -9.90741
v -20.10432 6.88807 -11.07683
v -22.23762 4.50600 -8.96000
v -21.32540 2.10193 -8.56001
v -19.10669 1.10614 -7.63404
v -16.88119 2.10193 -6.72452
v -15.95257 4.50600 -6.36422
v -16.86480 6.91007 -6.76421
v -19.08350 7.90586 -7.69018
v -21.30900 6.91007 -8.59970
v -23.17449 4.52800 -6.23987
v -22.22092 2.12393 -5.95200
v -19.90731 1.12814 -5.29834
v -17.58893 2.12393 -4.66179
v -16.62386 4.52800 -4.41524
v -17.57742 6.93207 -4.70311
v -19.89104 7.92786 -5.35678
v -22.20942 6.93207 -5.99332
v -23.77958 4.55000 -3.42422
v -22.79840 2.14593 -3.25261
v -20.42317 1.15013 -2.88066
v -18.04526 2.14593 -2.52624
v -17.05761 4.55000 -2.39698
v -18.03879 6.95407 -2.56859
v -20.41402 7.94987 -2.94054
v -22.79193 6.95407 -3.29496
v -24.04349 4.57200 -0.55339
v -23.04882 2.16793 -0.50051
v -20.64614 1.17213 -0.41561
v -18.24290 2.16793 -0.34843
v -17.24689 4.57200 -0.33832
v -18.24155 6.97607 -0.39120
v -20.64423 7.97187 -0.47609
v -23.04747 6.97607 -0.54327
v -23.96170 4.59400 2.33139
v -22.96787 2.18993 2.26478
v -20.57231 1.19413 2.06139
v -18.17831 2.18993 1.84037
v -17.18824 4.59400 1.73119
v -18.18208 6.99807 1.79780
v -20.57764 7.99387 2.00119
v -22.97164 6.99807 2.22221
v -23.53469 4.61600 5.18859
v -22.55598 2.21193 5.00344
v -20.20200 1.21613 4.51470
v -17.85168 2.21193 4.00867
v -16.88181 4.61600 3.78176
v -17.86051 7.02007 3.96690
v -20.21449 8.01587 4.45564
v -22.56481 7.02007 4.96168
v -22.76787 4.63800 7.97700
v -21.81838 2.23393 7.67599
v -19.53985 1.23813 6.90893
v -17.26702 2.23393 6.12515
v -16.33127 4.63800 5.78378
v -17.28077 7.04207 6.08480
v -19.55930 8.03787 6.85186
v -21.83213 7.04207 7.63564
v -21.67160 4.66000 10.65633
v -20.76498 2.25593 10.24378
v -18.59468 1.26013 9.20943
v -16.43203 2.25593 8.15919
v -15.54388 4.66000 7.70827
v -16.45049 7.06407 8.12082
v -18.62079 8.05987 9.15517
v -20.78344 7.06407 10.20541
v -20.26097 4.68200 13.18775
v -19.41028 2.27793 12.66961
v -17.37943 1.28213 11.38285
v -15.35807 2.27793 10.08125
v -14.53028 4.68200 9.52726
v -15.38096 7.08607 10.04541
v -17.41181 8.08187 11.33216
v -19.43317 7.08607 12.63376
v -18.55565 4.70400 15.53451
v -17.77313 2.29993 14.91822
v -15.91095 1.30413 13.39757
v -14.05996 2.29993 11.86333
v -13.30443 4.70400 11.21424
v -14.08695 7.10807 11.83053
v -15.94912 8.10387 13.35118
v -17.80012 7.10807 14.88542
v -16.57959 4.72600 17.66241
v -15.87651 2.32193 16.95685
v -14.20979 1.32613 15.22418
v -12.55579 2.32193 13.47938
v -11.88338 4.72600 12.74452
v -12.58647 7.13007 13.45008
v -14.25319 8.12587 15.18275
v -15.90719 7.13007 16.92755
v -14.36070 4.74800 19.54036
v -13.74716 2.34393 18.75569
v -12.29989 1.34813 16.83593
v -10.86667 2.34393 14.90566
v -10.28706 4.74800 14.09560
v -10.90060 7.15207 14.88027
v -12.34787 8.14787 16.80003
v -13.78110 7.15207 18.73030
v -11.93043 4.77000 21.14080
v -11.41527 2.36593 20.28830
v -10.20826 1.37013 18.20908
v -9.01643 2.36593 16.12110
v -8.53796 4.77000 15.24749
v -9.05312 7.17407 16.09999
v -10.26013 8.16987 18.17921
v -11.45196 7.17407 20.26719
v -9.32334 4.79200 22.44010
v -8.91398 2.38793 21.53205
v -7.96459 1.39213 19.32327
v -7.03131 2.38793 17.10762
v -6.66085 4.79200 16.18302
v -7.07021 7.19607 17.09107
v -8.01960 8.19187 19.29986
v -8.95288 7.19607 21.51550
v -6.57663 4.81400 23.41894
v -6.27895 2.40993 22.46840
v -5.60084 1.41413 20.16183
v -4.93953 2.40993 17.85039
v -4.68241 4.81400 16.88809
v -4.98009 7.21807 17.83863
v -5.65819 8.21387 20.14520
v -6.31950 7.21807 22.45664
v -3.72956 4.83600 24.06254
v -3.54785 2.43193 23.08320
v -3.15078 1.43613 20.71203
v -2.77095 2.43193 18.33805
v -2.63086 4.83600 17.35189
v -2.81257 7.24007 18.33123
v -3.20964 8.23587 20.70240
v -3.58947 7.24007 23.07638
v -0.82293 4.85800 24.36096
v -0.75980 2.45393 23.36690
v -0.64948 1.45813 20.96526
v -0.55659 2.45393 18.56287
v -0.53555 4.85800 17.56704
v -0.59868 7.26207 18.56109
v -0.70900 8.25787 20.96274
v -0.80189 7.26207 23.36512
v 2.10152 4.88000 24.30919
v 2.04516 2.47593 23.31473
v 1.86714 1.48013 20.91715
v 1.67174 2.47593 18.52092
v 1.57343 4.88000 17.52973
v 1.62980 7.28407 18.52419
v 1.80782 8.27987 20.92177
v 2.00321 7.28407 23.31799
v 5.00171 4.90200 23.90725
v 4.82667 2.49793 22.92669
v 4.36287 1.50213 20.56767
v 3.88200 2.49793 18.21208
v 3.66576 4.90200 17.23977
v 3.84080 7.30607 18.22033
v 4.30460 8.30187 20.57935
v 4.78546 7.30607 22.93495
v 7.83581 4.92400 23.16022
v 7.54461 2.51993 22.20768
v 6.80171 1.52413 19.92116
v 6.04229 2.51993 17.64007
v 5.71121 4.92400 16.70064
v 6.00242 7.32807 17.65318
v 6.74532 8.32387 19.93970
v 7.50473 7.32807 22.22079
v 10.56288 4.94600 22.07814
v 10.15971 2.54193 21.16733
v 9.14839 1.54613 18.98620
v 8.12134 2.54193 16.81244
v 7.68020 4.94600 15.91940
v 8.08337 7.35007 16.83021
v 9.09469 8.34587 19.01134
v 10.12173 7.35007 21.18510
v 13.14341 4.96800 20.67592
v 12.63407 2.56393 19.81994
v 11.36889 1.56813 17.77559
v 10.08899 2.56393 15.74042
v 9.54412 4.96800 14.90660
v 10.05346 7.37207 15.76258
v 11.31864 8.36787 17.80693
v 12.59855 7.37207 19.84211
v 15.53995 4.99000 18.97310
v 14.93178 2.58593 18.18427
v 13.43092 1.59013 16.30610
v 11.91658 2.58593 14.43880
v 11.27582 4.99000 13.67620
v 11.88400 7.39407 14.46503
v 13.38485 8.38987 16.34320
v 14.89920 7.39407 18.21050
v 17.71761 5.01200 16.99359
v 17.01934 2.60793 16.28327
v 15.30442 1.61213 14.59830
v 13.57741 2.60793 12.92572
v 12.84998 5.01200 12.24530
v 13.54824 7.41607 12.95563
v 15.26316 8.41187 14.64059
v 16.99017 7.41607 16.31317
v 19.64456 5.03400 14.76533
v 18.86626 2.62993 14.14374
v 16.96194 1.63413 12.67621
v 15.04711 2.62993 11.22242
v 14.24346 5.03400 10.63397
v 15.02176 7.43807 11.25556
v 16.92609 8.43387 12.72309
v 18.84091 7.43807 14.17688
v 21.29255 5.05600 12.31991
v 20.44542 2.65193 11.79599
v 18.37909 1.65613 10.56702
v 16.30399 2.65193 9.35293
v 15.43568 5.05600 8.86490
v 16.28282 7.46007 9.38883
v 18.34915 8.45587 10.61779
v 20.42425 7.46007 11.83189
v 22.63729 5.07800 9.69211
v 21.73351 2.67393 9.27340
v 19.53491 1.67813 8.30067
v 17.32938 2.67393 7.34374
v 16.40890 5.07800 6.96316
v 17.31267 7.48207 7.38187
v 19.51128 8.47787 8.35460
v 21.71681 7.48207 9.31153
v 23.65877 5.10000 6.91940
v 22.71136 2.69593 6.61193
v 20.41211 1.70013 5.90943
v 18.10788 2.69593 5.22343
v 17.14846 5.10000 4.95576
v 18.09587 7.50407 5.26323
v 20.39513 8.49987 5.96573
v 22.69936 7.50407 6.65173
v 24.34165 5.12200 4.04142
v 23.36423 2.71793 3.84961
v 20.99741 1.72213 3.42745
v 18.62763 2.71793 3.02224
v 17.64307 5.12200 2.87134
v 18.62048 7.52607 3.06315
v 20.98730 8.52187 3.48531
v 23.35709 7.52607 3.89052
v 24.67538 5.14400 1.09940
v 23.68204 2.73993 1.02602
v 21.28169 1.74413 0.89027
v 18.88044 2.73993 0.77168
v 17.88490 5.14400 0.73972
v 18.87825 7.54807 0.81311
v 21.27859 8.54387 0.94885
v 23.67984 7.54807 1.06744
v 24.65447 5.16600 -1.86441
v 23.65948 2.76193 -1.81831
v 21.26015 1.76613 -1.66569
v 18.86197 2.76193 -1.49595
v 17.86977 5.16600 -1.40852
v 18.86475 7.57007 -1.45461
v 21.26408 8.56587 -1.60723
v 23.66226 7.57007 -1.77697
v 24.27849 5.18800 -4.80737
v 23.29618 2.78393 -4.64246
v 20.93238 1.78813 -4.20367
v 18.57177 2.78393 -3.74804
v 17.59717 5.18800 -3.54247
v 18.57947 7.59207 -3.70738
v 20.94327 8.58787 -4.14617
v 23.30388 7.59207 -4.60179
v 23.55213 5.21000 -7.68705
v 22.59664 2.80593 -7.40570
v 20.30239 1.81013 -6.68706
v 18.01330 2.80593 -5.95210
v 17.07031 5.21000 -5.63134
v 18.02580 7.61407 -5.91269
v 20.32006 8.60987 -6.63133
v 22.60914 7.61407 -7.36630
v 22.48517 5.23200 -10.46186
v 21.57024 2.82793 -10.06812
v 19.37853 1.83213 -9.07996
v 17.19390 2.82793 -8.07623
v 16.29608 5.23200 -7.64491
v 17.21100 7.63607 -8.03865
v 19.40272 8.63187 -9.02681
v 21.58735 7.63607 -10.03054
v 21.09226 5.25400 -13.09162
v 20.23107 2.84993 -12.59115
v 18.17343 1.85413 -11.34769
v 16.12468 2.84993 -10.08964
v 15.28494 5.25400 -9.55395
v 16.14613 7.65807 -10.05442
v 18.20377 8.65387 -11.29788
v 20.25252 7.65807 -12.55593
v 19.39281 5.27600 -15.53816
v 18.59775 2.87193 -14.93817
v 16.70379 1.87612 -13.45730
v 14.82038 2.87193 -11.96302
v 14.05081 5.27600 -11.33067
v 14.84587 7.68007 -11.93066
v 16.73983 8.67588 -13.41153
v 18.62324 7.68007 -14.90581
v 17.41069 5.29800 -17.76588
v 16.69320 2.89392 -17.07500
v 14.99016 1.89812 -15.37802
v 13.29920 2.89392 -13.66901
v 12.61085 5.29800 -12.94909
v 13.32834 7.70208 -13.63997
v 15.03138 8.69788 -15.33695
v 16.72234 7.70208 -17.04596
v 15.17387 5.32000 -19.74226
v 14.54427 2.91592 -18.97043
v 13.05666 1.92012 -17.08176
v 11.58246 2.91592 -15.18260
v 10.98523 5.32000 -14.38546
v 11.61483 7.72408 -15.15729
v 13.10245 8.71988 -17.04596
v 14.57665 7.72408 -18.94512
v 12.71405 5.34200 -21.43832
v 12.18141 2.93792 -20.59666
v 10.93062 1.94212 -18.54346
v 9.69439 2.93792 -16.48147
v 9.19688 5.34200 -15.61857
v 9.72952 7.74608 -16.46024
v 10.98031 8.74188 -18.51344
v 12.21654 7.74608 -20.57542
v 10.06622 5.36400 -22.82908
v 9.63819 2.95992 -21.92969
v 8.64223 1.96412 -19.74151
v 7.66174 2.95992 -17.54635
v 7.27110 5.36400 -16.63011
v 7.69912 7.76808 -17.52950
v 8.69509 8.76388 -19.71768
v 9.67557 7.76808 -21.91284
v 7.26811 5.38600 -23.89390
v 6.95087 2.98192 -22.94972
v 6.22405 1.98612 -20.65804
v 5.51342 2.98192 -18.36129
v 5.23526 5.38600 -17.40487
v 5.55250 7.79008 -18.34904
v 6.27932 8.78588 -20.64073
v 6.98995 7.79008 -22.93748
v 4.35975 5.40800 -24.61678
v 4.15785 3.00392 -23.64141
v 3.71063 2.00812 -21.27919
v 3.28008 3.00392 -18.91388
v 3.11840 5.40800 -17.93104
v 3.32030 7.81208 -18.90641
v 3.76751 8.80788 -21.26863
v 4.19806 7.81208 -23.63394
v 1.38277 5.43000 -24.98663
v 1.29913 3.02592 -23.99410
v 1.13795 2.03012 -21.59534
v 0.99367 3.02592 -19.19549
v 0.95080 5.43000 -18.20037
v 1.03445 7.83408 -19.19289
v 1.19562 8.82988 -21.59166
v 1.33990 7.83408 -23.99151
v -1.62006 5.45200 -24.99742
v -1.58426 3.04792 -24.00202
v -1.45707 2.05212 -21.60121
v -1.31301 3.04792 -19.20135
v -1.23646 5.45200 -18.20825
v -1.27226 7.85608 -19.20365
v -1.39945 8.85188 -21.60447
v -1.54351 7.85608 -24.00432
v -4.60557 5.47400 -24.64828
v -4.45083 3.06992 -23.66433
v -4.03711 2.07412 -21.29601
v -3.60678 3.06992 -18.93066
v -3.41190 5.47400 -17.95387
v -3.56665 7.87808 -18.93782
v -3.98036 8.87388 -21.30613
v -4.41069 7.87808 -23.67148
v -7.53071 5.49600 -23.94351
v -7.25926 3.09192 -22.98517
v -6.56497 2.09612 -20.68342
v -5.85455 3.09192 -18.38660
v -5.54416 5.49600 -17.44016
v -5.81561 7.90008 -18.39850
v -6.50990 8.89588 -20.70024
v -7.22032 7.90008 -22.99706
v -10.35325 5.51800 -22.89255
v -9.96900 3.11392 -21.97361
v -9.00412 2.11812 -19.77155
v -8.02384 3.11392 -17.57630
v -7.60239 5.51800 -16.67381
v -7.98664 7.92208 -17.59275
v -8.95152 8.91788 -19.79482
v -9.93180 7.92208 -21.99007
v -13.03233 5.54000 -21.50986
v -12.54080 3.13592 -20.64355
v -11.31922 2.14012 -18.57284
v -10.08317 3.13592 -16.51074
v -9.55672 5.54000 -15.66519
v -10.04826 7.94408 -16.53151
v -11.26984 8.93988 -18.60221
v -12.50588 7.94408 -20.66431
v -15.52908 5.56200 -19.81468
v -14.93735 3.15792 -19.01346
v -13.47663 2.16212 -17.10391
v -12.00261 3.15792 -15.20462
v -11.37873 5.56200 -14.42816
v -11.97046 7.96608 -15.22938
v -13.43118 8.96188 -17.13893
v -14.90520 7.96608 -19.03823
v -17.80718 5.58400 -17.83081
v -17.12376 3.17992 -17.10621
v -15.44493 2.18412 -15.38528
v -13.75412 3.17992 -13.67612
v -13.04179 5.58400 -12.97992
v -13.72521 7.98808 -13.70452
v -15.40404 8.98388 -15.42545
v -17.09485 7.98808 -17.13461
v -19.83339 5.60600 -15.58623
v -19.06812 3.20192 -14.94869
v -17.19532 2.20612 -13.44114
v -15.31205 3.20192 -11.94669
v -14.52151 5.60600 -11.34077
v -15.28678 8.01008 -11.97832
v -17.15958 9.00588 -13.48586
v -19.04284 8.01008 -14.98031
v -21.57802 5.62800 -13.11277
v -20.74192 3.22392 -12.57145
v -18.70210 2.22812 -11.29897
v -16.65346 3.22392 -10.04074
v -15.79607 5.62800 -9.53380
v -16.63218 8.03208 -10.07512
v -18.67200 9.02788 -11.34760
v -20.72063 8.03208 -12.60584
v -23.01540 5.65000 -10.44559
v -22.12049 3.24592 -10.00829
v -19.94299 2.25012 -8.98918
v -17.75845 3.24592 -7.98525
v -16.84655 5.65000 -7.58459
v -17.74146 8.05408 -8.02190
v -19.91896 9.04988 -9.04100
v -22.10349 8.05408 -10.04493
v -24.12421 5.67200 -7.62272
v -23.18337 3.26792 -7.29572
v -20.89953 2.27212 -6.54465
v -18.61051 3.26792 -5.80947
v -17.65721 5.67200 -5.52085
v -18.59804 8.07608 -5.84784
v -20.88189 9.07188 -6.59891
v -23.17090 8.07608 -7.33409
v -24.88784 5.69400 -4.68449
v -23.91462 3.28992 -4.47251
v -21.55727 2.29412 -4.00028
v -19.19671 3.28992 -3.54443
v -18.21571 5.69400 -3.37199
v -19.18893 8.09808 -3.58397
v -21.54627 9.09388 -4.05620
v -23.90684 8.09808 -4.51205
v -25.29460 5.71600 -1.67301
v -24.30300 3.31192 -1.57909
v -21.90607 2.31612 -1.39250
v -19.50791 3.31192 -1.22253
v -18.51332 5.71600 -1.16875
v -19.50493 8.12008 -1.26267
v -21.90185 9.11588 -1.44927
v -24.30001 8.12008 -1.61923
v -25.33794 5.73800 1.36851
v -24.34223 3.33392 1.34301
v -21.94020 2.33812 1.24129
v -19.53894 3.33392 1.12293
v -18.54507 5.73800 1.05726
v -19.54078 8.14208 1.08276
v -21.94280 9.13788 1.18449
v -24.34407 8.14208 1.30285
v -25.01651 5.76000 4.39632
v -24.03101 3.35592 4.25178
v -21.65845 2.36012 3.86320
v -19.28862 3.35592 3.45821
v -18.30976 5.76000 3.27405
v -19.29525 8.16408 3.41860
v -21.66782 9.15988 3.80718
v -24.03764 8.16408 4.21217
v -24.33422 5.78200 7.36680
v -23.37313 3.37792 7.10528
v -21.06415 2.38212 6.43544
v -18.75985 3.37792 5.74965
v -17.81007 5.78200 5.44965
v -18.77116 8.18608 5.71117
v -21.08014 9.18188 6.38101
v -23.38444 8.18608 7.06679
v -23.30019 5.80400 10.23704
v -22.37733 3.39992 9.86232
v -20.16515 2.40412 8.92085
v -17.95954 3.39992 7.96413
v -17.05249 5.80400 7.55259
v -17.97535 8.20808 7.92731
v -20.18753 9.20388 8.86878
v -22.39314 8.20808 9.82551
v -21.92862 5.82600 12.96552
v -21.05726 3.42192 12.48299
v -18.97372 2.42612 11.28344
v -16.89851 3.42192 10.06954
v -16.04724 5.82600 9.55239
v -16.91860 8.23008 10.03492
v -19.00214 9.22588 11.23448
v -21.07735 8.23008 12.44837
v -20.23859 5.84800 15.51267
v -19.43129 3.44392 14.92927
v -17.50635 2.44812 13.48889
v -15.59139 3.44392 12.03528
v -14.80815 5.84800 11.41995
v -15.61545 8.25208 12.00335
v -17.54038 9.24788 13.44373
v -19.45535 8.25208 14.89734
v -18.25382 5.87000 17.84144
v -17.52219 3.46592 17.16557
v -15.78355 2.47012 15.50508
v -14.05638 3.46592 13.83267
v -13.35243 5.87000 13.12801
v -14.08407 8.27408 13.80389
v -15.82270 9.26988 15.46437
v -17.54987 8.27408 17.13678
v -16.00232 5.89200 19.91787
v -15.35688 3.48792 19.15925
v -13.82956 2.49212 17.30255
v -12.31503 3.48792 15.43540
v -11.70049 5.89200 14.65154
v -12.34592 8.29608 15.41016
v -13.87325 9.29188 17.26686
v -15.38778 8.29608 19.13402
v -13.51598 5.91400 21.71157
v -12.96603 3.50992 20.88112
v -11.67199 2.51412 18.85491
v -10.39189 3.50992 16.81987
v -9.87559 5.91400 15.96809
v -10.42554 8.31808 16.79854
v -11.71959 9.31388 18.82475
v -12.99969 8.31808 20.85979
v -10.83016 5.93600 23.19614
v -10.38361 3.53192 22.30582
v -9.34147 2.53612 20.13925
v -8.31421 3.53192 17.96559
v -7.90358 5.93600 17.05814
v -8.35013 8.34008 17.94846
v -9.39227 9.33588 20.11503
v -10.41954 8.34008 22.28869
v -7.98314 5.95800 24.34961
v -7.64642 3.55392 23.41222
v -6.87116 2.55812 21.13647
v -6.11152 3.55392 18.85546
v -5.81247 5.95800 17.90537
v -6.14919 8.36208 18.84276
v -6.92445 9.35788 21.11852
v -7.68409 8.36208 23.39953
v -5.01561 5.98000 25.15471
v -4.79356 3.57592 24.18375
v -4.29635 2.58012 21.83154
v -3.81524 3.57592 19.47600
v -3.63207 5.98000 18.49695
v -3.85413 8.38408 19.46792
v -4.35133 9.37988 21.82012
v -4.83244 8.38408 24.17567
v -1.97007 6.00200 25.59918
v -1.86588 3.59792 24.60861
v -1.65387 2.60212 22.21380
v -1.45823 3.59792 19.81759
v -1.39356 6.00200 18.82366
v -1.49775 8.40608 19.81423
v -1.70976 9.40188 22.20904
v -1.90540 8.40608 24.60524
v 1.10978 6.02400 25.67590
v 1.09460 3.61992 24.67998
v 1.01837 2.62412 22.27701
v 0.92573 3.61992 19.87462
v 0.87095 6.02400 18.88010
v 0.88613 8.42808 19.87601
v 0.96237 9.42388 22.27898
v 1.05501 8.42808 24.68137
v 4.17965 6.04600 25.38306
v 4.04532 3.64192 24.39612
v 3.68194 2.64612 22.01957
v 3.30235 3.64192 19.64555
v 3.12893 6.04600 18.66473
v 3.26325 8.45008 19.65166
v 3.62664 9.44588 22.02822
v 4.00622 8.45008 24.40224
v 7.19530 6.06800 24.72415
v 6.94376 3.66392 23.76040
v 6.29845 2.66811 21.44445
v 5.63739 3.66392 19.13294
v 5.34780 6.06800 18.17994
v 5.59934 8.47208 19.14368
v 6.24465 9.46789 21.45964
v 6.90572 8.47208 23.77114
v 10.11321 6.09000 23.70796
v 9.74808 3.68592 22.78126
v 8.83013 2.69011 20.55923
v 7.89709 3.68592 18.34349
v 7.49551 6.09000 17.43200
v 7.86064 8.49408 18.35869
v 8.77859 9.48989 20.58072
v 9.71163 8.49408 22.79646
v 12.89116 6.11200 22.34841
v 12.41769 3.70792 21.47211
v 11.24031 2.71211 19.37596
v 10.04871 3.70792 17.28786
v 9.54092 6.11200 16.43099
v 10.01439 8.51608 17.30729
v 11.19177 9.51189 19.40344
v 12.38336 8.51608 21.49154
v 15.48888 6.13400 20.66443
v 14.91388 3.72992 19.85113
v 13.49401 2.73411 17.91102
v 12.06100 3.72992 15.98060
v 11.45428 6.13400 15.19067
v 12.02928 8.53808 16.00397
v 13.44915 9.53389 17.94408
v 14.88217 8.53808 19.87451
v 17.86861 6.15600 18.67964
v 17.20036 3.75192 17.94104
v 15.55842 2.75611 16.18488
v 13.90460 3.75192 14.43990
v 13.20770 6.15600 13.72828
v 13.87594 8.56008 14.46688
v 15.51789 9.55589 16.22304
v 17.17170 8.56008 17.96802
v 19.99565 6.17800 16.42203
v 19.24377 3.77392 15.76877
v 17.40338 2.77811 14.22183
v 15.55255 3.77392 12.68739
v 14.77548 6.17800 12.06430
v 15.52736 8.58208 12.71757
v 17.36775 9.57789 14.26451
v 19.21857 8.58208 15.79895
v 21.83889 6.20000 13.92360
v 21.01419 3.79592 13.36507
v 19.00183 2.80011 12.04960
v 16.98061 3.79592 10.74777
v 16.13454 6.20000 10.22218
v 16.95924 8.60408 10.78071
v 18.97160 9.59989 12.09618
v 20.99282 8.60408 13.39801
v 23.37122 6.22200 11.21985
v 22.48558 3.81792 10.76409
v 20.33020 2.82211 9.69901
v 18.16767 3.81792 8.64853
v 17.26477 6.22200 8.22799
v 18.15041 8.62608 8.68375
v 20.30579 9.62189 9.74883
v 22.46833 8.62608 10.79931
v 24.57000 6.24400 8.34932
v 23.63616 3.83992 8.00289
v 21.36876 2.84411 7.20353
v 19.09602 3.83992 6.41950
v 18.14927 6.24400 6.11007
v 19.08311 8.64808 6.45650
v 21.35051 9.64389 7.25586
v 23.62325 8.64808 8.03989
v 25.41730 6.26600 5.35304
v 24.44869 3.86192 5.12093
v 22.10190 2.86611 4.59878
v 19.75164 3.86192 4.09248
v 18.77467 6.26600 3.89859
v 19.74327 8.67008 4.13071
v 22.09006 9.66589 4.65285
v 24.44032 8.67008 5.15916
v 25.90025 6.28800 2.27391
v 24.91082 3.88392 2.15945
v 22.51839 2.88811 1.92203
v 20.12442 3.88392 1.70074
v 19.13126 6.28800 1.62519
v 20.12069 8.69208 1.73965
v 22.51312 9.68789 1.97707
v 24.90709 8.69208 2.19836
v 26.01119 6.31000 -0.84390
v 25.01517 3.90592 -0.83906
v 22.61153 2.91011 -0.78833
v 20.20829 3.90592 -0.72143
v 19.21323 6.31000 -0.67755
v 20.20924 8.71408 -0.68239
v 22.61288 9.70989 -0.73311
v 25.01613 8.71408 -0.80001
v 25.74781 6.33200 -3.95554
v 24.75954 3.92792 -3.83147
v 22.37926 2.93211 -3.49333
v 20.00131 3.92792 -3.13920
v 19.01866 6.33200 -2.97652
v 20.00693 8.73608 -3.10060
v 22.38720 9.73189 -3.43874
v 24.76516 8.73608 -3.79287
v 25.11318 6.35400 -7.01621
v 24.14688 3.94992 -6.77470
v 21.82421 2.95411 -6.15401
v 19.50575 3.94992 -5.51774
v 18.54964 6.35400 -5.23861
v 19.51594 8.75808 -5.48012
v 21.83861 9.75389 -6.10081
v 24.15707 8.75808 -6.73708
v 24.11573 6.37600 -9.98173
v 23.18530 3.97192 -9.62624
v 20.95365 2.97611 -8.73193
v 18.72805 3.97192 -7.82268
v 17.81222 6.37600 -7.43111
v 18.74265 8.78008 -7.78660
v 20.97430 9.77589 -8.68091
v 23.19990 8.78008 -9.59016
v 22.76913 6.39800 -12.80921
v 21.88796 3.99392 -12.34487
v 19.77944 2.99811 -11.18980
v 17.67869 3.99392 -10.02064
v 16.81632 6.39800 -9.52226
v 17.69749 8.80208 -9.98661
v 19.80601 9.79789 -11.14167
v 21.90676 8.80208 -12.31083
v 21.09210 6.42000 -15.45767
v 20.27287 4.01592 -14.89115
v 18.31780 3.02011 -13.49195
v 16.37214 4.01592 -12.07970
v 15.57562 6.42000 -11.48168
v 16.39485 8.82408 -12.04819
v 18.34992 9.81989 -13.44739
v 20.29558 8.82408 -14.85964
v 19.10815 6.44200 -17.88862
v 18.36266 4.03792 -17.22808
v 16.58917 3.04211 -15.60488
v 14.82657 4.03792 -13.96985
v 14.10737 6.44200 -13.28078
v 14.85286 8.84608 -13.94132
v 16.62635 9.84189 -15.56453
v 18.38895 8.84608 -17.19955
v 16.84528 6.46400 -20.06664
v 16.18424 4.05992 -19.32159
v 14.61785 3.06411 -17.49773
v 13.06367 4.05992 -15.66345
v 12.43212 6.46400 -14.89324
v 13.09316 8.86808 -15.63830
v 14.65955 9.86389 -17.46216
v 16.21373 8.86808 -19.29644
v 14.33553 6.48600 -21.95989
v 13.76847 4.08191 -21.14105
v 12.43170 3.08611 -19.14276
v 11.10830 4.08191 -17.13561
v 10.57349 6.48600 -16.29535
v 11.14055 8.89009 -17.11419
v 12.47731 9.88589 -19.11248
v 13.80071 8.89009 -21.11963
v 11.61457 6.50800 -23.54056
v 11.14964 4.10391 -22.65970
v 10.06174 3.10811 -20.51575
v 8.98815 4.10391 -18.36459
v 8.55776 6.50800 -17.46636
v 9.02269 8.91209 -18.34721
v 10.11059 9.90789 -20.49117
v 11.18418 8.91209 -22.64232
v 8.72120 6.53000 -24.78528
v 8.36509 4.12591 -23.85509
v 7.54170 3.13011 -21.59631
v 6.73336 4.12591 -19.33210
v 6.41359 6.53000 -18.38880
v 6.76969 8.93409 -19.31899
v 7.59308 9.92989 -21.57777
v 8.40142 8.93409 -23.84198
v 5.69673 6.55200 -25.67549
v 5.45457 4.14791 -24.70935
v 4.90754 3.15211 -22.36824
v 4.37608 4.14791 -20.02354
v 4.17152 6.55200 -19.04875
v 4.41368 8.95609 -20.01489
v 4.96071 9.95189 -22.35600
v 5.49217 8.95609 -24.70070
v 2.58449 6.57400 -26.19770
v 2.45975 4.16991 -25.20952
v 2.19695 3.17411 -22.81975
v 1.95002 4.16991 -20.42829
v 1.86361 6.57400 -19.43602
v 1.98834 8.97809 -20.42420
v 2.25115 9.97389 -22.81397
v 2.49808 8.97809 -25.20544
v -0.57089 6.59600 -26.34369
v -0.57640 4.19191 -25.34769
v -0.55119 3.19611 -22.94364
v -0.51005 4.19191 -20.53982
v -0.47706 6.59600 -19.54434
v -0.47155 9.00009 -20.54035
v -0.49675 9.99589 -22.94439
v -0.53790 9.00009 -25.34822
v -3.72404 6.61800 -26.11065
v -3.61024 4.21391 -25.12115
v -3.29739 3.21811 -22.73741
v -2.96876 4.21391 -20.35580
v -2.81685 6.61800 -19.37143
v -2.93065 9.02209 -20.36093
v -3.24349 10.01789 -22.74467
v -3.57213 9.02209 -25.12628
v -6.82955 6.64000 -25.50119
v -6.59808 4.23591 -24.53244
v -6.00209 3.24011 -22.20331
v -5.39070 4.23591 -19.87817
v -5.12205 6.64000 -18.91906
v -5.35352 9.04409 -19.88782
v -5.94950 10.03989 -22.21695
v -6.56090 9.04409 -24.54209
v -9.84261 6.66200 -24.52340
v -9.49681 4.25791 -23.58934
v -8.62625 3.26211 -21.34831
v -7.74089 4.25791 -19.11309
v -7.35937 6.66200 -18.19304
v -7.70517 9.06609 -19.12711
v -8.57573 10.06189 -21.36813
v -9.46108 9.06609 -23.60335
v -12.71965 6.68400 -23.19066
v -12.26449 4.27991 -22.30472
v -11.13189 3.28411 -20.18404
v -9.98530 4.27991 -18.07089
v -9.49639 6.68400 -17.20312
v -9.95155 9.08809 -18.08906
v -11.08416 10.08389 -20.20974
v -12.23074 9.08809 -22.32289
v -15.41900 6.70600 -21.52147
v -14.86103 4.30191 -20.69641
v -13.48267 3.30611 -18.72659
v -12.09135 4.30191 -16.76590
v -11.50208 6.70600 -15.96290
v -12.06005 9.11009 -16.78796
v -13.43840 10.10589 -18.75778
v -14.82973 9.11009 -20.71847
v -17.90143 6.72800 -19.53925
v -17.24868 4.32391 -18.78694
v -15.64440 3.32811 -16.99631
v -14.02836 4.32391 -15.21630
v -13.34720 6.72800 -14.48960
v -13.99995 9.13209 -15.24191
v -15.60423 10.12789 -17.03254
v -17.22028 9.13209 -18.81256
v -20.13080 6.75000 -17.27195
v -19.39266 4.34591 -16.60321
v -17.58554 3.35011 -15.01754
v -15.76801 4.34591 -13.44380
v -15.00477 6.75000 -12.80386
v -15.74291 9.15409 -13.47260
v -17.55003 10.14989 -15.05827
v -19.36755 9.15409 -16.63202
v -22.07451 6.77200 -14.75168
v -21.26161 4.36791 -14.17614
v -19.27764 3.37211 -12.81823
v -17.28478 4.36791 -11.47340
v -16.45043 6.77200 -10.92942
v -17.26333 9.17609 -11.50496
v -19.24730 10.17189 -12.86287
v -21.24016 9.17609 -14.20771
v -23.70405 6.79400 -12.01426
v -22.82808 4.38991 -11.54020
v -20.69580 3.39411 -10.42958
v -18.55628 4.38991 -9.33300
v -17.66281 6.79400 -8.89281
v -18.53878 9.19809 -9.36687
v -20.67105 10.19389 -10.47749
v -22.81058 9.19809 -11.57407
v -24.99535 6.81600 -9.09869
v -24.06892 4.41191 -8.73293
v -21.81901 3.41611 -7.88559
v -19.56359 4.41191 -7.05304
v -18.62386 6.81600 -6.72296
v -19.55029 9.22009 -7.08872
v -21.80020 10.21589 -7.93606
v -24.05561 9.22009 -8.76861
v -25.92919 6.83800 -6.04662
v -24.96562 4.43391 -5.79443
v -22.63045 3.43811 -5.22256
v -20.29158 4.43391 -4.66601
v -19.31909 6.83800 -4.45079
v -20.28265 9.24209 -4.70299
v -22.61783 10.23789 -5.27486
v -24.95670 9.24209 -5.83141
v -26.49143 6.86000 -2.90176
v -25.50461 4.45591 -2.76676
v -23.11776 3.46011 -2.47858
v -20.72909 4.45591 -2.20604
v -19.73783 6.86000 -2.10878
v -20.72465 9.26409 -2.24378
v -23.11150 10.25989 -2.53196
v -25.50017 9.26409 -2.80451
v -26.67330 6.88200 0.29079
v -25.67741 4.47791 0.30665
v -23.27323 3.48211 0.30699
v -20.86910 4.47791 0.29161
v -19.87333 6.88200 0.26951
v -20.86922 9.28609 0.25364
v -23.27340 10.28189 0.25330
v -25.67752 9.28609 0.26869
v -26.47145 6.90400 3.48514
v -25.48082 4.49991 3.38164
v -23.09390 3.50411 3.09414
v -20.70890 4.49991 2.79104
v -19.72294 6.90400 2.64991
v -20.71356 9.30809 2.75341
v -23.10049 10.30389 3.04091
v -25.48548 9.30809 3.34400
v -25.88807 6.92600 6.63530
v -24.91697 4.52191 6.41392
v -22.58163 3.52611 5.84271
v -20.25008 4.52191 5.25627
v -19.28809 6.92600 4.99813
v -20.25920 9.33009 5.21951
v -22.59453 10.32589 5.79072
v -24.92609 9.33009 6.37716
v -24.93085 6.94800 9.69582
v -23.99324 4.54391 9.35975
v -21.74310 3.54811 8.51305
v -19.49852 4.54391 7.65170
v -18.57435 6.94800 7.28027
v -19.51196 9.35209 7.61633
v -21.76211 10.34789 8.46303
v -24.00668 9.35209 9.32438
v -23.61288 6.97000 12.62246
v -22.72225 4.56591 12.17654
v -20.58966 3.57011 11.06653
v -18.46435 4.56591 9.94266
v -17.59129 6.97000 9.46327
v -18.48191 9.37409 9.90919
v -20.61450 10.36989 11.01919
v -22.73982 9.37409 12.14307
v -21.95245 6.99200 15.37282
v -21.12163 4.58791 14.82347
v -19.13728 3.59210 13.46612
v -17.16179 4.58791 12.09589
v -16.35239 6.99200 11.51545
v -17.18321 9.39609 12.06480
v -19.16757 10.39190 13.42215
v -21.14305 9.39609 14.79238
v -19.97284 7.01400 17.90698
v -19.21378 4.60991 17.26210
v -17.40621 3.61410 15.67694
v -15.60897 4.60991 14.08006
v -14.87487 7.01400 13.40690
v -15.63393 9.41809 14.05178
v -17.44151 10.41390 15.63695
v -19.23874 9.41809 17.23382
v -17.70196 7.03600 20.18804
v -17.02558 4.63191 19.45690
v -15.42079 3.63610 17.66673
v -13.82766 4.63191 15.86618
v -13.17942 7.03600 15.10999
v -13.85580 9.44009 15.84112
v -15.46059 10.43590 17.63129
v -17.05372 9.44009 19.43184
v -15.17197 7.05800 22.18267
v -14.58800 4.65391 21.37580
v -13.20909 3.65810 19.40637
v -11.84297 4.65391 17.42805
v -11.28991 7.05800 16.59969
v -11.87387 9.46209 17.40656
v -13.25279 10.45790 19.37599
v -14.61891 9.46209 21.35432
v -12.41882 7.08000 23.86162
v -11.93567 4.67591 22.99063
v -10.80246 3.68010 20.87028
v -9.68301 4.67591 18.74263
v -9.23308 7.08000 17.85403
v -9.71623 9.48409 18.72502
v -10.84944 10.47990 20.84537
v -11.96888 9.48409 22.97302
v -9.48173 7.10200 25.20012
v -9.10635 4.69791 24.27755
v -8.23515 3.70210 22.03678
v -7.37847 4.69791 19.79041
v -7.03814 7.10200 18.85435
v -7.41352 9.50609 19.77692
v -8.28472 10.50190 22.01769
v -9.14140 9.50609 24.26406
v -6.40266 7.12400 26.17828
v -6.14045 4.71991 25.21740
v -5.54380 3.72410 22.88844
v -4.96221 4.71991 20.55567
v -4.73637 7.12400 19.58559
v -4.99858 9.52809 20.54647
v -5.59524 10.52390 22.87543
v -6.17683 9.52809 25.20820
v -3.22569 7.14600 26.78132
v -3.08042 4.74191 25.79596
v -2.76689 3.74610 23.41232
v -2.46876 4.74191 21.02670
v -2.36067 7.14600 20.03657
v -2.50594 9.55009 21.02193
v -2.81947 10.54590 23.40557
v -3.11760 9.55009 25.79119
v 0.00362 7.16800 26.99989
v 0.02985 4.76391 26.00422
v 0.05575 3.76810 23.60018
v 0.06613 4.76391 21.19603
v 0.05493 7.16800 20.20008
v 0.02869 9.57209 21.19575
v 0.00280 10.56790 23.59978
v -0.00758 9.57209 26.00394
v 3.23887 7.19000 26.83010
v 3.14569 4.78591 25.83845
v 2.88357 3.79010 23.44861
v 2.60606 4.78591 21.06050
v 2.47572 7.19000 20.07306
v 2.56890 9.59409 21.06470
v 2.83101 10.58990 23.45455
v 3.10852 9.59409 25.84265
v 6.43347 7.21200 26.27369
v 6.22222 4.80791 25.30034
v 5.67587 3.81210 22.95907
v 5.11445 4.80791 20.62136
v 4.86685 7.21200 19.65661
v 5.07810 9.61609 20.62997
v 5.62445 10.61190 22.97124
v 6.18586 9.61609 25.30895
v 9.54135 7.23400 25.33796
v 9.21507 4.82991 24.39690
v 8.39234 3.83410 22.13788
v 7.55510 4.82991 19.88420
v 7.19379 7.23400 18.95603
v 7.52007 9.63809 19.89709
v 8.34280 10.63390 22.15611
v 9.18004 9.63809 24.40979
v 12.51760 7.25600 24.03567
v 12.08098 4.85191 23.14046
v 10.99371 3.85610 20.99619
v 9.89268 4.85191 18.85895
v 9.42287 7.25600 17.98070
v 9.85948 9.66009 18.87592
v 10.94676 10.65590 21.02019
v 12.04779 9.66009 23.15743
v 15.14646 7.27800 22.49375
v 14.65694 4.87391 21.62634
v 13.44308 3.87810 19.55110
v 12.21595 4.87391 17.48369
v 11.69438 7.27800 16.63516
v 12.18390 9.68209 17.50257
v 13.39776 10.67790 19.57781
v 14.62489 9.68209 21.64522
f 1/1 2/1 10/1 9/1
f 2/1 3/1 11/1 10/1
f 3/1 4/1 12/1 11/1
f 4/1 5/1 13/1 12/1
f 5/1 6/1 14/1 13/1
f 6/1 7/1 15/1 14/1
f 7/1 8/1 16/1 15/1
f 8/1 1/1 9/1 16/1
f 9/1 10/1 18/1 17/1
f 10/1 11/1 19/1 18/1
f 11/1 12/1 20/1 19/1
f 12/1 13/1 21/1 20/1
f 13/1 14/1 22/1 21/1
f 14/1 15/1 23/1 22/1
f 15/1 16/1 24/1 23/1
f 16/1 9/1 17/1 24/1
f 17/1 18/1 26/1 25/1
f 18/1 19/1 27/1 26/1
f 19/1 20/1 28/1 27/1
f 20/1 21/1 29/1 28/1
f 21/1 22/1 30/1 29/1
f 22/1 23/1 31/1 30/1
f 23/1 24/1 32/1 31/1
f 24/1 17/1 25/1 32/1
f 25/1 26/1 34/1 33/1
f 26/1 27/1 35/1 34/1
f 27/1 28/1 36/1 35/1
f 28/1 29/1 37/1 36/1
f 29/1 30/1 38/1 37/1
f 30/1 31/1 39/1 38/1
f 31/1 32/1 40/1 39/1
f 32/1 25/1 33/1 40/1
f 33/1 34/1 42/1 41/1
f 34/1 35/1 43/1 42/1
f 35/1 36/1 44/1 43/1
f 36/1 37/1 45/1 44/1
f 37/1 38/1 46/1 45/1
f 38/1 39/1 47/1 46/1
f 39/1 40/1 48/1 47/1
f 40/1 33/1 41/1 48/1
f 41/1 42/1 50/1 49/1
f 42/1 43/1 51/1 50/1
f 43/1 44/1 52/1 51/1
f 44/1 45/1 53/1 52/1
f 45/1 46/1 54/1 53/1
f 46/1 47/1 55/1 54/1
f 47/1 48/1 56/1 55/1
f 48/1 41/1 49/1 56/1
f 49/1 50/1 58/1 57/1
f 50/1 51/1 59/1 58/1
f 51/1 52/1 60/1 59/1
f 52/1 53/1 61/1 60/1
f 53/1 54/1 62/1 61/1
f 54/1 55/1 63/1 62/1
f 55/1 56/1 64/1 63/1
f 56/1 49/1 57/1 64/1
f 57/1 58/1 66/1 65/1
f 58/1 59/1 67/1 66/1
f 59/1 60/1 68/1 67/1
f 60/1 61/1 69/1 68/1
f 61/1 62/1 70/1 69/1
f 62/1 63/1 71/1 70/1
f 63/1 64/1 72/1 71/1
f 64/1 57/1 65/1 72/1
f 65/1 66/1 74/1 73/1
f 66/1 67/1 75/1 74/1
f 67/1 68/1 76/1 75/1
f 68/1 69/1 77/1 76/1
f 69/1 70/1 78/1 77/1
f 70/1 71/1 79/1 78/1
f 71/1 72/1 80/1 79/1
f 72/1 65/1 73/1 80/1
f 73/1 74/1 82/1 81/1
f 74/1 75/1 83/1 82/1
f 75/1 76/1 84/1 83/1
f 76/1 77/1 85/1 84/1
f 77/1 78/1 86/1 85/1
f 78/1 79/1 87/1 86/1
f 79/1 80/1 88/1 87/1
f 80/1 73/1 81/1 88/1
f 81/1 82/1 90/1 89/1
f 82/1 83/1 91/1 90/1
f 83/1 84/1 92/1 91/1
f 84/1 85/1 93/1 92/1
f 85/1 86/1 94/1 93/1
f 86/1 87/1 95/1 94/1
f 87/1 88/1 96/1 95/1
f 88/1 81/1 89/1 96/1
f 89/1 90/1 98/1 97/1
f 90/1 91/1 99/1 98/1
f 91/1 92/1 100/1 99/1
f 92/1 93/1 101/1 100/1
f 93/1 94/1 102/1 101/1
f 94/1 95/1 103/1 102/1
f 95/1 96/1 104/1 103/1
f 96/1 89/1 97/1 104/1
f 97/1 98/1 106/1 105/1
f 98/1 99/1 107/1 106/1
f 99/1 100/1 108/1 107/1
f 100/1 101/1 109/1 108/1
f 101/1 102/1 110/1 109/1
f 102/1 103/1 111/1 110/1
f 103/1 104/1 112/1 111/1
f 104/1 97/1 105/1 112/1
f 105/1 106/1 114/1 113/1
f 106/1 107/1 115/1 114/1
f 107/1 108/1 116/1 115/1
f 108/1 109/1 117/1 116/1
f 109/1 110/1 118/1 117/1
f 110/1 111/1 119/1 118/1
f 111/1 112/1 120/1 119/1
f 112/1 105/1 113/1 120/1
f 113/1 114/1 122/1 121/1
f 114/1 115/1 123/1 122/1
f 115/1 116/1 124/1 123/1
f 116/1 117/1 125/1 124/1
f 117/1 118/1 126/1 125/1
f 118/1 119/1 127/1 126/1
f 119/1 120/1 128/1 127/1
f 120/1 113/1 121/1 128/1
f 121/1 122/1 130/1 129/1
f 122/1 123/1 131/1 130/1
f 123/1 124/1 132/1 131/1
f 124/1 125/1 133/1 132/1
f 125/1 126/1 134/1 133/1
f 126/1 127/1 135/1 134/1
f 127/1 128/1 136/1 135/1
f 128/1 121/1 129/1 136/1
f 129/1 130/1 138/1 137/1
f 130/1 131/1 139/1 138/1
f 131/1 132/1 140/1 139/1
f 132/1 133/1 141/1 140/1
f 133/1 134/1 142/1 141/1
f 134/1 135/1 143/1 142/1
f 135/1 136/1 144/1 143/1
f 136/1 129/1 137/1 144/1
f 137/1 138/1 146/1 145/1
f 138/1 139/1 147/1 146/1
f 139/1 140/1 148/1 147/1
f 140/1 141/1 149/1 148/1
f 141/1 142/1 150/1 149/1
f 142/1 143/1 151/1 150/1
f 143/1 144/1 152/1 151/1
f 144/1 137/1 145/1 152/1
f 145/1 146/1 154/1 153/1
f 146/1 147/1 155/1 154/1
f 147/1 148/1 156/1 155/1
f 148/1 149/1 157/1 156/1
f 149/1 150/1 158/1 157/1
f 150/1 151/1 159/1 158/1
f 151/1 152/1 160/1 159/1
f 152/1 145/1 153/1 160/1
f 153/1 154/1 162/1 161/1
f 154/1 155/1 163/1 162/1
f 155/1 156/1 164/1 163/1
f 156/1 157/1 165/1 164/1
f 157/1 158/1 166/1 165/1
f 158/1 159/1 167/1 166/1
f 159/1 160/1 168/1 167/1
f 160/1 153/1 161/1 168/1
f 161/1 162/1 170/1 169/1
f 162/1 163/1 171/1 170/1
f 163/1 164/1 172/1 171/1
f 164/1 165/1 173/1 172/1
f 165/1 166/1 174/1 173/1
f 166/1 167/1 175/1 174/1
f 167/1 168/1 176/1 175/1
f 168/1 161/1 169/1 176/1
f 169/1 170/1 178/1 177/1
f 170/1 171/1 179/1 178/1
f 171/1 172/1 180/1 179/1
f 172/1 173/1 181/1 180/1
f 173/1 174/1 182/1 181/1
f 174/1 175/1 183/1 182/1
f 175/1 176/1 184/1 183/1
f 176/1 169/1 177/1 184/1
f 177/1 178/1 186/1 185/1
f 178/1 179/1 187/1 186/1
f 179/1 180/1 188/1 187/1
f 180/1 181/1 189/1 188/1
f 181/1 182/1 190/1 189/1
f 182/1 183/1 191/1 190/1
f 183/1 184/1 192/1 191/1
f 184/1 177/1 185/1 192/1
f 185/1 186/1 194/1 193/1
f 186/1 187/1 195/1 194/1
f 187/1 188/1 196/1 195/1
f 188/1 189/1 197/1 196/1
f 189/1 190/1 198/1 197/1
f 190/1 191/1 199/1 198/1
f 191/1 192/1 200/1 199/1
f 192/1 185/1 193/1 200/1
f 193/1 194/1 202/1 201/1
f 194/1 195/1 203/1 202/1
f 195/1 196/1 204/1 203/1
f 196/1 197/1 205/1 204/1
f 197/1 198/1 206/1 205/1
f 198/1 199/1 207/1 206/1
f 199/1 200/1 208/1 207/1
f 200/1 193/1 201/1 208/1
f 201/1 202/1 210/1 209/1
f 202/1 203/1 211/1 210/1
f 203/1 204/1 212/1 211/1
f 204/1 205/1 213/1 212/1
f 205/1 206/1 214/1 213/1
f 206/1 207/1 215/1 214/1
f 207/1 208/1 216/1 215/1
f 208/1 201/1 209/1 216/1
f 209/1 210/1 218/1 217/1
f 210/1 211/1 219/1 218/1
f 211/1 212/1 220/1 219/1
f 212/1 213/1 221/1 220/1
f 213/1 214/1 222/1 221/1
f 214/1 215/1 223/1 222/1
f 215/1 216/1 224/1 223/1
f 216/1 209/1 217/1 224/1
f 217/1 218/1 226/1 225/1
f 218/1 219/1 227/1 226/1
f 219/1 220/1 228/1 227/1
f 220/1 221/1 229/1 228/1
f 221/1 222/1 230/1 229/1
f 222/1 223/1 231/1 230/1
f 223/1 224/1 232/1 231/1
f 224/1 217/1 225/1 232/1
f 225/1 226/1 234/1 233/1
f 226/1 227/1 235/1 234/1
f 227/1 228/1 236/1 235/1
f 228/1 229/1 237/1 236/1
f 229/1 230/1 238/1 237/1
f 230/1 231/1 239/1 238/1
f 231/1 232/1 240/1 239/1
f 232/1 225/1 233/1 240/1
f 233/1 234/1 242/1 241/1
f 234/1 235/1 243/1 242/1
f 235/1 236/1 244/1 243/1
f 236/1 237/1 245/1 244/1
f 237/1 238/1 246/1 245/1
f 238/1 239/1 247/1 246/1
f 239/1 240/1 248/1 247/1
f 240/1 233/1 241/1 248/1
f 241/1 242/1 250/1 249/1
f 242/1 243/1 251/1 250/1
f 243/1 244/1 252/1 251/1
f 244/1 245/1 253/1 252/1
f 245/1 246/1 254/1 253/1
f 246/1 247/1 255/1 254/1
f 247/1 248/1 256/1 255/1
f 248/1 241/1 249/1 256/1
f 249/1 250/1 258/1 257/1
f 250/1 251/1 259/1 258/1
f 251/1 252/1 260/1 259/1
f 252/1 253/1 261/1 260/1
f 253/1 254/1 262/1 261/1
f 254/1 255/1 263/1 262/1
f 255/1 256/1 264/1 263/1
f 256/1 249/1 257/1 264/1
f 257/1 258/1 266/1 265/1
f 258/1 259/1 267/1 266/1
f 259/1 260/1 268/1 267/1
f 260/1 261/1 269/1 268/1
f 261/1 262/1 270/1 269/1
f 262/1 263/1 271/1 270/1
f 263/1 264/1 272/1 271/1
f 264/1 257/1 265/1 272/1
f 265/1 266/1 274/1 273/1
f 266/1 267/1 275/1 274/1
f 267/1 268/1 276/1 275/1
f 268/1 269/1 277/1 276/1
f 269/1 270/1 278/1 277/1
f 270/1 271/1 279/1 278/1
f 271/1 272/1 280/1 279/1
f 272/1 265/1 273/1 280/1
f 273/1 274/1 282/1 281/1
f 274/1 275/1 283/1 282/1
f 275/1 276/1 284/1 283/1
f 276/1 277/1 285/1 284/1
f 277/1 278/1 286/1 285/1
f 278/1 279/1 287/1 286/1
f 279/1 280/1 288/1 287/1
f 280/1 273/1 281/1 288/1
f 281/1 282/1 290/1 289/1
f 282/1 283/1 291/1 290/1
f 283/1 284/1 292/1 291/1
f 284/1 285/1 293/1 292/1
f 285/1 286/1 294/1 293/1
f 286/1 287/1 295/1 294/1
f 287/1 288/1 296/1 295/1
f 288/1 281/1 289/1 296/1
f 289/1 290/1 298/1 297/1
f 290/1 291/1 299/1 298/1
f 291/1 292/1 300/1 299/1
f 292/1 293/1 301/1 300/1
f 293/1 294/1 302/1 301/1
f 294/1 295/1 303/1 302/1
f 295/1 296/1 304/1 303/1
f 296/1 289/1 297/1 304/1
f 297/1 298/1 306/1 305/1
f 298/1 299/1 307/1 306/1
f 299/1 300/1 308/1 307/1
f 300/1 301/1 309/1 308/1
f 301/1 302/1 310/1 309/1
f 302/1 303/1 311/1 310/1
f 303/1 304/1 312/1 311/1
f 304/1 297/1 305/1 312/1
f 305/1 306/1 314/1 313/1
f 306/1 307/1 315/1 314/1
f 307/1 308/1 316/1 315/1
f 308/1 309/1 317/1 316/1
f 309/1 310/1 318/1 317/1
f 310/1 311/1 319/1 318/1
f 311/1 312/1 320/1 319/1
f 312/1 305/1 313/1 320/1
f 313/1 314/1 322/1 321/1
f 314/1 315/1 323/1 322/1
f 315/1 316/1 324/1 323/1
f 316/1 317/1 325/1 324/1
f 317/1 318/1 326/1 325/1
f 318/1 319/1 327/1 326/1
f 319/1 320/1 328/1 327/1
f 320/1 313/1 321/1 328/1
f 321/1 322/1 330/1 329/1
f 322/1 323/1 331/1 330/1
f 323/1 324/1 332/1 331/1
f 324/1 325/1 333/1 332/1
f 325/1 326/1 334/1 333/1
f 326/1 327/1 335/1 334/1
f 327/1 328/1 336/1 335/1
f 328/1 321/1 329/1 336/1
f 329/1 330/1 338/1 337/1
f 330/1 331/1 339/1 338/1
f 331/1 332/1 340/1 339/1
f 332/1 333/1 341/1 340/1
f 333/1 334/1 342/1 341/1
f 334/1 335/1 343/1 342/1
f 335/1 336/1 344/1 343/1
f 336/1 329/1 337/1 344/1
f 337/1 338/1 346/1 345/1
f 338/1 339/1 347/1 346/1
f 339/1 340/1 348/1 347/1
f 340/1 341/1 349/1 348/1
f 341/1 342/1 350/1 349/1
f 342/1 343/1 351/1 350/1
f 343/1 344/1 352/1 351/1
f 344/1 337/1 345/1 352/1
f 345/1 346/1 354/1 353/1
f 346/1 347/1 355/1 354/1
f 347/1 348/1 356/1 355/1
f 348/1 349/1 357/1 356/1
f 349/1 350/1 358/1 357/1
f 350/1 351/1 359/1 358/1
f 351/1 352/1 360/1 359/1
f 352/1 345/1 353/1 360/1
f 353/1 354/1 362/1 361/1
f 354/1 355/1 363/1 362/1
f 355/1 356/1 364/1 363/1
f 356/1 357/1 365/1 364/1
f 357/1 358/1 366/1 365/1
f 358/1 359/1 367/1 366/1
f 359/1 360/1 368/1 367/1
f 360/1 353/1 361/1 368/1
f 361/1 362/1 370/1 369/1
f 362/1 363/1 371/1 370/1
f 363/1 364/1 372/1 371/1
f 364/1 365/1 373/1 372/1
f 365/1 366/1 374/1 373/1
f 366/1 367/1 375/1 374/1
f 367/1 368/1 376/1 375/1
f 368/1 361/1 369/1 376/1
f 369/1 370/1 378/1 377/1
f 370/1 371/1 379/1 378/1
f 371/1 372/1 380/1 379/1
f 372/1 373/1 381/1 380/1
f 373/1 374/1 382/1 381/1
f 374/1 375/1 383/1 382/1
f 375/1 376/1 384/1 383/1
f 376/1 369/1 377/1 384/1
f 377/1 378/1 386/1 385/1
f 378/1 379/1 387/1 386/1
f 379/1 380/1 388/1 387/1
f 380/1 381/1 389/1 388/1
f 381/1 382/1 390/1 389/1
f 382/1 383/1 391/1 390/1
f 383/1 384/1 392/1 391/1
f 384/1 377/1 385/1 392/1
f 385/1 386/1 394/1 393/1
f 386/1 387/1 395/1 394/1
f 387/1 388/1 396/1 395/1
f 388/1 389/1 397/1 396/1
f 389/1 390/1 398/1 397/1
f 390/1 391/1 399/1 398/1
f 391/1 392/1 400/1 399/1
f 392/1 385/1 393/1 400/1
f 393/1 394/1 402/1 401/1
f 394/1 395/1 403/1 402/1
f 395/1 396/1 404/1 403/1
f 396/1 397/1 405/1 404/1
f 397/1 398/1 406/1 405/1
f 398/1 399/1 407/1 406/1
f 399/1 400/1 408/1 407/1
f 400/1 393/1 401/1 408/1
f 401/1 402/1 410/1 409/1
f 402/1 403/1 411/1 410/1
f 403/1 404/1 412/1 411/1
f 404/1 405/1 413/1 412/1
f 405/1 406/1 414/1 413/1
f 406/1 407/1 415/1 414/1
f 407/1 408/1 416/1 415/1
f 408/1 401/1 409/1 416/1
f 409/1 410/1 418/1 417/1
f 410/1 411/1 419/1 418/1
f 411/1 412/1 420/1 419/1
f 412/1 413/1 421/1 420/1
f 413/1 414/1 422/1 421/1
f 414/1 415/1 423/1 422/1
f 415/1 416/1 424/1 423/1
f 416/1 409/1 417/1 424/1
f 417/1 418/1 426/1 425/1
f 418/1 419/1 427/1 426/1
f 419/1 420/1 428/1 427/1
f 420/1 421/1 429/1 428/1
f 421/1 422/1 430/1 429/1
f 422/1 423/1 431/1 430/1
f 423/1 424/1 432/1 431/1
f 424/1 417/1 425/1 432/1
f 425/1 426/1 434/1 433/1
f 426/1 427/1 435/1 434/1
f 427/1 428/1 436/1 435/1
f 428/1 429/1 437/1 436/1
f 429/1 430/1 438/1 437/1
f 430/1 431/1 439/1 438/1
f 431/1 432/1 440/1 439/1
f 432/1 425/1 433/1 440/1
f 433/1 434/1 442/1 441/1
f 434/1 435/1 443/1 442/1
f 435/1 436/1 444/1 443/1
f 436/1 437/1 445/1 444/1
f 437/1 438/1 446/1 445/1
f 438/1 439/1 447/1 446/1
f 439/1 440/1 448/1 447/1
f 440/1 433/1 441/1 448/1
f 441/1 442/1 450/1 449/1
f 442/1 443/1 451/1 450/1
f 443/1 444/1 452/1 451/1
f 444/1 445/1 453/1 452/1
f 445/1 446/1 454/1 453/1
f 446/1 447/1 455/1 454/1
f 447/1 448/1 456/1 455/1
f 448/1 441/1 449/1 456/1
f 449/1 450/1 458/1 457/1
f 450/1 451/1 459/1 458/1
f 451/1 452/1 460/1 459/1
f 452/1 453/1 461/1 460/1
f 453/1 454/1 462/1 461/1
f 454/1 455/1 463/1 462/1
f 455/1 456/1 464/1 463/1
f 456/1 449/1 457/1 464/1
f 457/1 458/1 466/1 465/1
f 458/1 459/1 467/1 466/1
f 459/1 460/1 468/1 467/1
f 460/1 461/1 469/1 468/1
f 461/1 462/1 470/1 469/1
f 462/1 463/1 471/1 470/1
f 463/1 464/1 472/1 471/1
f 464/1 457/1 465/1 472/1
f 465/1 466/1 474/1 473/1
f 466/1 467/1 475/1 474/1
f 467/1 468/1 476/1 475/1
f 468/1 469/1 477/1 476/1
f 469/1 470/1 478/1 477/1
f 470/1 471/1 479/1 478/1
f 471/1 472/1 480/1 479/1
f 472/1 465/1 473/1 480/1
f 473/1 474/1 482/1 481/1
f 474/1 475/1 483/1 482/1
f 475/1 476/1 484/1 483/1
f 476/1 477/1 485/1 484/1
f 477/1 478/1 486/1 485/1
f 478/1 479/1 487/1 486/1
f 479/1 480/1 488/1 487/1
f 480/1 473/1 481/1 488/1
f 481/1 482/1 490/1 489/1
f 482/1 483/1 491/1 490/1
f 483/1 484/1 492/1 491/1
f 484/1 485/1 493/1 492/1
f 485/1 486/1 494/1 493/1
f 486/1 487/1 495/1 494/1
f 487/1 488/1 496/1 495/1
f 488/1 481/1 489/1 496/1
f 489/1 490/1 498/1 497/1
f 490/1 491/1 499/1 498/1
f 491/1 492/1 500/1 499/1
f 492/1 493/1 501/1 500/1
f 493/1 494/1 502/1 501/1
f 494/1 495/1 503/1 502/1
f 495/1 496/1 504/1 503/1
f 496/1 489/1 497/1 504/1
f 497/1 498/1 506/1 505/1
f 498/1 499/1 507/1 506/1
f 499/1 500/1 508/1 507/1
f 500/1 501/1 509/1 508/1
f 501/1 502/1 510/1 509/1
f 502/1 503/1 511/1 510/1
f 503/1 504/1 512/1 511/1
f 504/1 497/1 505/1 512/1
f 505/1 506/1 514/1 513/1
f 506/1 507/1 515/1 514/1
f 507/1 508/1 516/1 515/1
f 508/1 509/1 517/1 516/1
f 509/1 510/1 518/1 517/1
f 510/1 511/1 519/1 518/1
f 511/1 512/1 520/1 519/1
f 512/1 505/1 513/1 520/1
f 513/1 514/1 522/1 521/1
f 514/1 515/1 523/1 522/1
f 515/1 516/1 524/1 523/1
f 516/1 517/1 525/1 524/1
f 517/1 518/1 526/1 525/1
f 518/1 519/1 527/1 526/1
f 519/1 520/1 528/1 527/1
f 520/1 513/1 521/1 528/1
f 521/1 522/1 530/1 529/1
f 522/1 523/1 531/1 530/1
f 523/1 524/1 532/1 531/1
f 524/1 525/1 533/1 532/1
f 525/1 526/1 534/1 533/1
f 526/1 527/1 535/1 534/1
f 527/1 528/1 536/1 535/1
f 528/1 521/1 529/1 536/1
f 529/1 530/1 538/1 537/1
f 530/1 531/1 539/1 538/1
f 531/1 532/1 540/1 539/1
f 532/1 533/1 541/1 540/1
f 533/1 534/1 542/1 541/1
f 534/1 535/1 543/1 542/1
f 535/1 536/1 544/1 543/1
f 536/1 529/1 537/1 544/1
f 537/1 538/1 546/1 545/1
f 538/1 539/1 547/1 546/1
f 539/1 540/1 548/1 547/1
f 540/1 541/1 549/1 548/1
f 541/1 542/1 550/1 549/1
f 542/1 543/1 551/1 550/1
f 543/1 544/1 552/1 551/1
f 544/1 537/1 545/1 552/1
f 545/1 546/1 554/1 553/1
f 546/1 547/1 555/1 554/1
f 547/1 548/1 556/1 555/1
f 548/1 549/1 557/1 556/1
f 549/1 550/1 558/1 557/1
f 550/1 551/1 559/1 558/1
f 551/1 552/1 560/1 559/1
f 552/1 545/1 553/1 560/1
f 553/1 554/1 562/1 561/1
f 554/1 555/1 563/1 562/1
f 555/1 556/1 564/1 563/1
f 556/1 557/1 565/1 564/1
f 557/1 558/1 566/1 565/1
f 558/1 559/1 567/1 566/1
f 559/1 560/1 568/1 567/1
f 560/1 553/1 561/1 568/1
f 561/1 562/1 570/1 569/1
f 562/1 563/1 571/1 570/1
f 563/1 564/1 572/1 571/1
f 564/1 565/1 573/1 572/1
f 565/1 566/1 574/1 573/1
f 566/1 567/1 575/1 574/1
f 567/1 568/1 576/1 575/1
f 568/1 561/1 569/1 576/1
f 569/1 570/1 578/1 577/1
f 570/1 571/1 579/1 578/1
f 571/1 572/1 580/1 579/1
f 572/1 573/1 581/1 580/1
f 573/1 574/1 582/1 581/1
f 574/1 575/1 583/1 582/1
f 575/1 576/1 584/1 583/1
f 576/1 569/1 577/1 584/1
f 577/1 578/1 586/1 585/1
f 578/1 579/1 587/1 586/1
f 579/1 580/1 588/1 587/1
f 580/1 581/1 589/1 588/1
f 581/1 582/1 590/1 589/1
f 582/1 583/1 591/1 590/1
f 583/1 584/1 592/1 591/1
f 584/1 577/1 585/1 592/1
f 585/1 586/1 594/1 593/1
f 586/1 587/1 595/1 594/1
f 587/1 588/1 596/1 595/1
f 588/1 589/1 597/1 596/1
f 589/1 590/1 598/1 597/1
f 590/1 591/1 599/1 598/1
f 591/1 592/1 600/1 599/1
f 592/1 585/1 593/1 600/1
f 593/1 594/1 602/1 601/1
f 594/1 595/1 603/1 602/1
f 595/1 596/1 604/1 603/1
f 596/1 597/1 605/1 604/1
f 597/1 598/1 606/1 605/1
f 598/1 599/1 607/1 606/1
f 599/1 600/1 608/1 607/1
f 600/1 593/1 601/1 608/1
f 601/1 602/1 610/1 609/1
f 602/1 603/1 611/1 610/1
f 603/1 604/1 612/1 611/1
f 604/1 605/1 613/1 612/1
f 605/1 606/1 614/1 613/1
f 606/1 607/1 615/1 614/1
f 607/1 608/1 616/1 615/1
f 608/1 601/1 609/1 616/1
f 609/1 610/1 618/1 617/1
f 610/1 611/1 619/1 618/1
f 611/1 612/1 620/1 619/1
f 612/1 613/1 621/1 620/1
f 613/1 614/1 622/1 621/1
f 614/1 615/1 623/1 622/1
f 615/1 616/1 624/1 623/1
f 616/1 609/1 617/1 624/1
f 617/1 618/1 626/1 625/1
f 618/1 619/1 627/1 626/1
f 619/1 620/1 628/1 627/1
f 620/1 621/1 629/1 628/1
f 621/1 622/1 630/1 629/1
f 622/1 623/1 631/1 630/1
f 623/1 624/1 632/1 631/1
f 624/1 617/1 625/1 632/1
f 625/1 626/1 634/1 633/1
f 626/1 627/1 635/1 634/1
f 627/1 628/1 636/1 635/1
f 628/1 629/1 637/1 636/1
f 629/1 630/1 638/1 637/1
f 630/1 631/1 639/1 638/1
f 631/1 632/1 640/1 639/1
f 632/1 625/1 633/1 640/1
f 633/1 634/1 642/1 641/1
f 634/1 635/1 643/1 642/1
f 635/1 636/1 644/1 643/1
f 636/1 637/1 645/1 644/1
f 637/1 638/1 646/1 645/1
f 638/1 639/1 647/1 646/1
f 639/1 640/1 648/1 647/1
f 640/1 633/1 641/1 648/1
f 641/1 642/1 650/1 649/1
f 642/1 643/1 651/1 650/1
f 643/1 644/1 652/1 651/1
f 644/1 645/1 653/1 652/1
f 645/1 646/1 654/1 653/1
f 646/1 647/1 655/1 654/1
f 647/1 648/1 656/1 655/1
f 648/1 641/1 649/1 656/1
f 649/1 650/1 658/1 657/1
f 650/1 651/1 659/1 658/1
f 651/1 652/1 660/1 659/1
f 652/1 653/1 661/1 660/1
f 653/1 654/1 662/1 661/1
f 654/1 655/1 663/1 662/1
f 655/1 656/1 664/1 663/1
f 656/1 649/1 657/1 664/1
f 657/1 658/1 666/1 665/1
f 658/1 659/1 667/1 666/1
f 659/1 660/1 668/1 667/1
f 660/1 661/1 669/1 668/1
f 661/1 662/1 670/1 669/1
f 662/1 663/1 671/1 670/1
f 663/1 664/1 672/1 671/1
f 664/1 657/1 665/1 672/1
f 665/1 666/1 674/1 673/1
f 666/1 667/1 675/1 674/1
f 667/1 668/1 676/1 675/1
f 668/1 669/1 677/1 676/1
f 669/1 670/1 678/1 677/1
f 670/1 671/1 679/1 678/1
f 671/1 672/1 680/1 679/1
f 672/1 665/1 673/1 680/1
f 673/1 674/1 682/1 681/1
f 674/1 675/1 683/1 682/1
f 675/1 676/1 684/1 683/1
f 676/1 677/1 685/1 684/1
f 677/1 678/1 686/1 685/1
f 678/1 679/1 687/1 686/1
f 679/1 680/1 688/1 687/1
f 680/1 673/1 681/1 688/1
f 681/1 682/1 690/1 689/1
f 682/1 683/1 691/1 690/1
f 683/1 684/1 692/1 691/1
f 684/1 685/1 693/1 692/1
f 685/1 686/1 694/1 693/1
f 686/1 687/1 695/1 694/1
f 687/1 688/1 696/1 695/1
f 688/1 681/1 689/1 696/1
f 689/1 690/1 698/1 697/1
f 690/1 691/1 699/1 698/1
f 691/1 692/1 700/1 699/1
f 692/1 693/1 701/1 700/1
f 693/1 694/1 702/1 701/1
f 694/1 695/1 703/1 702/1
f 695/1 696/1 704/1 703/1
f 696/1 689/1 697/1 704/1
f 697/1 698/1 706/1 705/1
f 698/1 699/1 707/1 706/1
f 699/1 700/1 708/1 707/1
f 700/1 701/1 709/1 708/1
f 701/1 702/1 710/1 709/1
f 702/1 703/1 711/1 710/1
f 703/1 704/1 712/1 711/1
f 704/1 697/1 705/1 712/1
f 705/1 706/1 714/1 713/1
f 706/1 707/1 715/1 714/1
f 707/1 708/1 716/1 715/1
f 708/1 709/1 717/1 716/1
f 709/1 710/1 718/1 717/1
f 710/1 711/1 719/1 718/1
f 711/1 712/1 720/1 719/1
f 712/1 705/1 713/1 720/1
f 713/1 714/1 722/1 721/1
f 714/1 715/1 723/1 722/1
f 715/1 716/1 724/1 723/1
f 716/1 717/1 725/1 724/1
f 717/1 718/1 726/1 725/1
f 718/1 719/1 727/1 726/1
f 719/1 720/1 728/1 727/1
f 720/1 713/1 721/1 728/1
f 721/1 722/1 730/1 729/1
f 722/1 723/1 731/1 730/1
f 723/1 724/1 732/1 731/1
f 724/1 725/1 733/1 732/1
f 725/1 726/1 734/1 733/1
f 726/1 727/1 735/1 734/1
f 727/1 728/1 736/1 735/1
f 728/1 721/1 729/1 736/1
f 729/1 730/1 738/1 737/1
f 730/1 731/1 739/1 738/1
f 731/1 732/1 740/1 739/1
f 732/1 733/1 741/1 740/1
f 733/1 734/1 742/1 741/1
f 734/1 735/1 743/1 742/1
f 735/1 736/1 744/1 743/1
f 736/1 729/1 737/1 744/1
f 737/1 738/1 746/1 745/1
f 738/1 739/1 747/1 746/1
f 739/1 740/1 748/1 747/1
f 740/1 741/1 749/1 748/1
f 741/1 742/1 750/1 749/1
f 742/1 743/1 751/1 750/1
f 743/1 744/1 752/1 751/1
f 744/1 737/1 745/1 752/1
f 745/1 746/1 754/1 753/1
f 746/1 747/1 755/1 754/1
f 747/1 748/1 756/1 755/1
f 748/1 749/1 757/1 756/1
f 749/1 750/1 758/1 757/1
f 750/1 751/1 759/1 758/1
f 751/1 752/1 760/1 759/1
f 752/1 745/1 753/1 760/1
f 753/1 754/1 762/1 761/1
f 754/1 755/1 763/1 762/1
f 755/1 756/1 764/1 763/1
f 756/1 757/1 765/1 764/1
f 757/1 758/1 766/1 765/1
f 758/1 759/1 767/1 766/1
f 759/1 760/1 768/1 767/1
f 760/1 753/1 761/1 768/1
f 761/1 762/1 770/1 769/1
f 762/1 763/1 771/1 770/1
f 763/1 764/1 772/1 771/1
f 764/1 765/1 773/1 772/1
f 765/1 766/1 774/1 773/1
f 766/1 767/1 775/1 774/1
f 767/1 768/1 776/1 775/1
f 768/1 761/1 769/1 776/1
f 769/1 770/1 778/1 777/1
f 770/1 771/1 779/1 778/1
f 771/1 772/1 780/1 779/1
f 772/1 773/1 781/1 780/1
f 773/1 774/1 782/1 781/1
f 774/1 775/1 783/1 782/1
f 775/1 776/1 784/1 783/1
f 776/1 769/1 777/1 784/1
f 777/1 778/1 786/1 785/1
f 778/1 779/1 787/1 786/1
f 779/1 780/1 788/1 787/1
f 780/1 781/1 789/1 788/1
f 781/1 782/1 790/1 789/1
f 782/1 783/1 791/1 790/1
f 783/1 784/1 792/1 791/1
f 784/1 777/1 785/1 792/1
f 785/1 786/1 794/1 793/1
f 786/1 787/1 795/1 794/1
f 787/1 788/1 796/1 795/1
f 788/1 789/1 797/1 796/1
f 789/1 790/1 798/1 797/1
f 790/1 791/1 799/1 798/1
f 791/1 792/1 800/1 799/1
f 792/1 785/1 793/1 800/1
f 793/1 794/1 802/1 801/1
f 794/1 795/1 803/1 802/1
f 795/1 796/1 804/1 803/1
f 796/1 797/1 805/1 804/1
f 797/1 798/1 806/1 805/1
f 798/1 799/1 807/1 806/1
f 799/1 800/1 808/1 807/1
f 800/1 793/1 801/1 808/1
f 801/1 802/1 810/1 809/1
f 802/1 803/1 811/1 810/1
f 803/1 804/1 812/1 811/1
f 804/1 805/1 813/1 812/1
f 805/1 806/1 814/1 813/1
f 806/1 807/1 815/1 814/1
f 807/1 808/1 816/1 815/1
f 808/1 801/1 809/1 816/1
f 809/1 810/1 818/1 817/1
f 810/1 811/1 819/1 818/1
f 811/1 812/1 820/1 819/1
f 812/1 813/1 821/1 820/1
f 813/1 814/1 822/1 821/1
f 814/1 815/1 823/1 822/1
f 815/1 816/1 824/1 823/1
f 816/1 809/1 817/1 824/1
f 817/1 818/1 826/1 825/1
f 818/1 819/1 827/1 826/1
f 819/1 820/1 828/1 827/1
f 820/1 821/1 829/1 828/1
f 821/1 822/1 830/1 829/1
f 822/1 823/1 831/1 830/1
f 823/1 824/1 832/1 831/1
f 824/1 817/1 825/1 832/1
f 825/1 826/1 834/1 833/1
f 826/1 827/1 835/1 834/1
f 827/1 828/1 836/1 835/1
f 828/1 829/1 837/1 836/1
f 829/1 830/1 838/1 837/1
f 830/1 831/1 839/1 838/1
f 831/1 832/1 840/1 839/1
f 832/1 825/1 833/1 840/1
f 833/1 834/1 842/1 841/1
f 834/1 835/1 843/1 842/1
f 835/1 836/1 844/1 843/1
f 836/1 837/1 845/1 844/1
f 837/1 838/1 846/1 845/1
f 838/1 839/1 847/1 846/1
f 839/1 840/1 848/1 847/1
f 840/1 833/1 841/1 848/1
f 841/1 842/1 850/1 849/1
f 842/1 843/1 851/1 850/1
f 843/1 844/1 852/1 851/1
f 844/1 845/1 853/1 852/1
f 845/1 846/1 854/1 853/1
f 846/1 847/1 855/1 854/1
f 847/1 848/1 856/1 855/1
f 848/1 841/1 849/1 856/1
f 849/1 850/1 858/1 857/1
f 850/1 851/1 859/1 858/1
f 851/1 852/1 860/1 859/1
f 852/1 853/1 861/1 860/1
f 853/1 854/1 862/1 861/1
f 854/1 855/1 863/1 862/1
f 855/1 856/1 864/1 863/1
f 856/1 849/1 857/1 864/1
f 857/1 858/1 866/1 865/1
f 858/1 859/1 867/1 866/1
f 859/1 860/1 868/1 867/1
f 860/1 861/1 869/1 868/1
f 861/1 862/1 870/1 869/1
f 862/1 863/1 871/1 870/1
f 863/1 864/1 872/1 871/1
f 864/1 857/1 865/1 872/1
f 865/1 866/1 874/1 873/1
f 866/1 867/1 875/1 874/1
f 867/1 868/1 876/1 875/1
f 868/1 869/1 877/1 876/1
f 869/1 870/1 878/1 877/1
f 870/1 871/1 879/1 878/1
f 871/1 872/1 880/1 879/1
f 872/1 865/1 873/1 880/1
f 873/1 874/1 882/1 881/1
f 874/1 875/1 883/1 882/1
f 875/1 876/1 884/1 883/1
f 876/1 877/1 885/1 884/1
f 877/1 878/1 886/1 885/1
f 878/1 879/1 887/1 886/1
f 879/1 880/1 888/1 887/1
f 880/1 873/1 881/1 888/1
f 881/1 882/1 890/1 889/1
f 882/1 883/1 891/1 890/1
f 883/1 884/1 892/1 891/1
f 884/1 885/1 893/1 892/1
f 885/1 886/1 894/1 893/1
f 886/1 887/1 895/1 894/1
f 887/1 888/1 896/1 895/1
f 888/1 881/1 889/1 896/1
f 889/1 890/1 898/1 897/1
f 890/1 891/1 899/1 898/1
f 891/1 892/1 900/1 899/1
f 892/1 893/1 901/1 900/1
f 893/1 894/1 902/1 901/1
f 894/1 895/1 903/1 902/1
f 895/1 896/1 904/1 903/1
f 896/1 889/1 897/1 904/1
f 897/1 898/1 906/1 905/1
f 898/1 899/1 907/1 906/1
f 899/1 900/1 908/1 907/1
f 900/1 901/1 909/1 908/1
f 901/1 902/1 910/1 909/1
f 902/1 903/1 911/1 910/1
f 903/1 904/1 912/1 911/1
f 904/1 897/1 905/1 912/1
f 905/1 906/1 914/1 913/1
f 906/1 907/1 915/1 914/1
f 907/1 908/1 916/1 915/1
f 908/1 909/1 917/1 916/1
f 909/1 910/1 918/1 917/1
f 910/1 911/1 919/1 918/1
f 911/1 912/1 920/1 919/1
f 912/1 905/1 913/1 920/1
f 913/1 914/1 922/1 921/1
f 914/1 915/1 923/1 922/1
f 915/1 916/1 924/1 923/1
f 916/1 917/1 925/1 924/1
f 917/1 918/1 926/1 925/1
f 918/1 919/1 927/1 926/1
f 919/1 920/1 928/1 927/1
f 920/1 913/1 921/1 928/1
f 921/1 922/1 930/1 929/1
f 922/1 923/1 931/1 930/1
f 923/1 924/1 932/1 931/1
f 924/1 925/1 933/1 932/1
f 925/1 926/1 934/1 933/1
f 926/1 927/1 935/1 934/1
f 927/1 928/1 936/1 935/1
f 928/1 921/1 929/1 936/1
f 929/1 930/1 938/1 937/1
f 930/1 931/1 939/1 938/1
f 931/1 932/1 940/1 939/1
f 932/1 933/1 941/1 940/1
f 933/1 934/1 942/1 941/1
f 934/1 935/1 943/1 942/1
f 935/1 936/1 944/1 943/1
f 936/1 929/1 937/1 944/1
f 937/1 938/1 946/1 945/1
f 938/1 939/1 947/1 946/1
f 939/1 940/1 948/1 947/1
f 940/1 941/1 949/1 948/1
f 941/1 942/1 950/1 949/1
f 942/1 943/1 951/1 950/1
f 943/1 944/1 952/1 951/1
f 944/1 937/1 945/1 952/1
f 945/1 946/1 954/1 953/1
f 946/1 947/1 955/1 954/1
f 947/1 948/1 956/1 955/1
f 948/1 949/1 957/1 956/1
f 949/1 950/1 958/1 957/1
f 950/1 951/1 959/1 958/1
f 951/1 952/1 960/1 959/1
f 952/1 945/1 953/1 960/1
f 953/1 954/1 962/1 961/1
f 954/1 955/1 963/1 962/1
f 955/1 956/1 964/1 963/1
f 956/1 957/1 965/1 964/1
f 957/1 958/1 966/1 965/1
f 958/1 959/1 967/1 966/1
f 959/1 960/1 968/1 967/1
f 960/1 953/1 961/1 968/1
f 961/1 962/1 970/1 969/1
f 962/1 963/1 971/1 970/1
f 963/1 964/1 972/1 971/1
f 964/1 965/1 973/1 972/1
f 965/1 966/1 974/1 973/1
f 966/1 967/1 975/1 974/1
f 967/1 968/1 976/1 975/1
f 968/1 961/1 969/1 976/1
f 969/1 970/1 978/1 977/1
f 970/1 971/1 979/1 978/1
f 971/1 972/1 980/1 979/1
f 972/1 973/1 981/1 980/1
f 973/1 974/1 982/1 981/1
f 974/1 975/1 983/1 982/1
f 975/1 976/1 984/1 983/1
f 976/1 969/1 977/1 984/1
f 977/1 978/1 986/1 985/1
f 978/1 979/1 987/1 986/1
f 979/1 980/1 988/1 987/1
f 980/1 981/1 989/1 988/1
f 981/1 982/1 990/1 989/1
f 982/1 983/1 991/1 990/1
f 983/1 984/1 992/1 991/1
f 984/1 977/1 985/1 992/1
f 985/1 986/1 994/1 993/1
f 986/1 987/1 995/1 994/1
f 987/1 988/1 996/1 995/1
f 988/1 989/1 997/1 996/1
f 989/1 990/1 998/1 997/1
f 990/1 991/1 999/1 998/1
f 991/1 992/1 1000/1 999/1
f 992/1 985/1 993/1 1000/1
f 993/1 994/1 1002/1 1001/1
f 994/1 995/1 1003/1 1002/1
f 995/1 996/1 1004/1 1003/1
f 996/1 997/1 1005/1 1004/1
f 997/1 998/1 1006/1 1005/1
f 998/1 999/1 1007/1 1006/1
f 999/1 1000/1 1008/1 1007/1
f 1000/1 993/1 1001/1 1008/1
f 1001/1 1002/1 1010/1 1009/1
f 1002/1 1003/1 1011/1 1010/1
f 1003/1 1004/1 1012/1 1011/1
f 1004/1 1005/1 1013/1 1012/1
f 1005/1 1006/1 1014/1 1013/1
f 1006/1 1007/1 1015/1 1014/1
f 1007/1 1008/1 1016/1 1015/1
f 1008/1 1001/1 1009/1 1016/1
f 1009/1 1010/1 1018/1 1017/1
f 1010/1 1011/1 1019/1 1018/1
f 1011/1 1012/1 1020/1 1019/1
f 1012/1 1013/1 1021/1 1020/1
f 1013/1 1014/1 1022/1 1021/1
f 1014/1 1015/1 1023/1 1022/1
f 1015/1 1016/1 1024/1 1023/1
f 1016/1 1009/1 1017/1 1024/1
f 1017/1 1018/1 1026/1 1025/1
f 1018/1 1019/1 1027/1 1026/1
f 1019/1 1020/1 1028/1 1027/1
f 1020/1 1021/1 1029/1 1028/1
f 1021/1 1022/1 1030/1 1029/1
f 1022/1 1023/1 1031/1 1030/1
f 1023/1 1024/1 1032/1 1031/1
f 1024/1 1017/1 1025/1 1032/1
f 1025/1 1026/1 1034/1 1033/1
f 1026/1 1027/1 1035/1 1034/1
f 1027/1 1028/1 1036/1 1035/1
f 1028/1 1029/1 1037/1 1036/1
f 1029/1 1030/1 1038/1 1037/1
f 1030/1 1031/1 1039/1 1038/1
f 1031/1 1032/1 1040/1 1039/1
f 1032/1 1025/1 1033/1 1040/1
f 1033/1 1034/1 1042/1 1041/1
f 1034/1 1035/1 1043/1 1042/1
f 1035/1 1036/1 1044/1 1043/1
f 1036/1 1037/1 1045/1 1044/1
f 1037/1 1038/1 1046/1 1045/1
f 1038/1 1039/1 1047/1 1046/1
f 1039/1 1040/1 1048/1 1047/1
f 1040/1 1033/1 1041/1 1048/1
f 1041/1 1042/1 1050/1 1049/1
f 1042/1 1043/1 1051/1 1050/1
f 1043/1 1044/1 1052/1 1051/1
f 1044/1 1045/1 1053/1 1052/1
f 1045/1 1046/1 1054/1 1053/1
f 1046/1 1047/1 1055/1 1054/1
f 1047/1 1048/1 1056/1 1055/1
f 1048/1 1041/1 1049/1 1056/1
f 1049/1 1050/1 1058/1 1057/1
f 1050/1 1051/1 1059/1 1058/1
f 1051/1 1052/1 1060/1 1059/1
f 1052/1 1053/1 1061/1 1060/1
f 1053/1 1054/1 1062/1 1061/1
f 1054/1 1055/1 1063/1 1062/1
f 1055/1 1056/1 1064/1 1063/1
f 1056/1 1049/1 1057/1 1064/1
f 1057/1 1058/1 1066/1 1065/1
f 1058/1 1059/1 1067/1 1066/1
f 1059/1 1060/1 1068/1 1067/1
f 1060/1 1061/1 1069/1 1068/1
f 1061/1 1062/1 1070/1 1069/1
f 1062/1 1063/1 1071/1 1070/1
f 1063/1 1064/1 1072/1 1071/1
f 1064/1 1057/1 1065/1 1072/1
f 1065/1 1066/1 1074/1 1073/1
f 1066/1 1067/1 1075/1 1074/1
f 1067/1 1068/1 1076/1 1075/1
f 1068/1 1069/1 1077/1 1076/1
f 1069/1 1070/1 1078/1 1077/1
f 1070/1 1071/1 1079/1 1078/1
f 1071/1 1072/1 1080/1 1079/1
f 1072/1 1065/1 1073/1 1080/1
f 1073/1 1074/1 1082/1 1081/1
f 1074/1 1075/1 1083/1 1082/1
f 1075/1 1076/1 1084/1 1083/1
f 1076/1 1077/1 1085/1 1084/1
f 1077/1 1078/1 1086/1 1085/1
f 1078/1 1079/1 1087/1 1086/1
f 1079/1 1080/1 1088/1 1087/1
f 1080/1 1073/1 1081/1 1088/1
f 1081/1 1082/1 1090/1 1089/1
f 1082/1 1083/1 1091/1 1090/1
f 1083/1 1084/1 1092/1 1091/1
f 1084/1 1085/1 1093/1 1092/1
f 1085/1 1086/1 1094/1 1093/1
f 1086/1 1087/1 1095/1 1094/1
f 1087/1 1088/1 1096/1 1095/1
f 1088/1 1081/1 1089/1 1096/1
f 1089/1 1090/1 1098/1 1097/1
f 1090/1 1091/1 1099/1 1098/1
f 1091/1 1092/1 1100/1 1099/1
f 1092/1 1093/1 1101/1 1100/1
f 1093/1 1094/1 1102/1 1101/1
f 1094/1 1095/1 1103/1 1102/1
f 1095/1 1096/1 1104/1 1103/1
f 1096/1 1089/1 1097/1 1104/1
f 1097/1 1098/1 1106/1 1105/1
f 1098/1 1099/1 1107/1 1106/1
f 1099/1 1100/1 1108/1 1107/1
f 1100/1 1101/1 1109/1 1108/1
f 1101/1 1102/1 1110/1 1109/1
f 1102/1 1103/1 1111/1 1110/1
f 1103/1 1104/1 1112/1 1111/1
f 1104/1 1097/1 1105/1 1112/1
f 1105/1 1106/1 1114/1 1113/1
f 1106/1 1107/1 1115/1 1114/1
f 1107/1 1108/1 1116/1 1115/1
f 1108/1 1109/1 1117/1 1116/1
f 1109/1 1110/1 1118/1 1117/1
f 1110/1 1111/1 1119/1 1118/1
f 1111/1 1112/1 1120/1 1119/1
f 1112/1 1105/1 1113/1 1120/1
f 1113/1 1114/1 1122/1 1121/1
f 1114/1 1115/1 1123/1 1122/1
f 1115/1 1116/1 1124/1 1123/1
f 1116/1 1117/1 1125/1 1124/1
f 1117/1 1118/1 1126/1 1125/1
f 1118/1 1119/1 1127/1 1126/1
f 1119/1 1120/1 1128/1 1127/1
f 1120/1 1113/1 1121/1 1128/1
f 1121/1 1122/1 1130/1 1129/1
f 1122/1 1123/1 1131/1 1130/1
f 1123/1 1124/1 1132/1 1131/1
f 1124/1 1125/1 1133/1 1132/1
f 1125/1 1126/1 1134/1 1133/1
f 1126/1 1127/1 1135/1 1134/1
f 1127/1 1128/1 1136/1 1135/1
f 1128/1 1121/1 1129/1 1136/1
f 1129/1 1130/1 1138/1 1137/1
f 1130/1 1131/1 1139/1 1138/1
f 1131/1 1132/1 1140/1 1139/1
f 1132/1 1133/1 1141/1 1140/1
f 1133/1 1134/1 1142/1 1141/1
f 1134/1 1135/1 1143/1 1142/1
f 1135/1 1136/1 1144/1 1143/1
f 1136/1 1129/1 1137/1 1144/1
f 1137/1 1138/1 1146/1 1145/1
f 1138/1 1139/1 1147/1 1146/1
f 1139/1 1140/1 1148/1 1147/1
f 1140/1 1141/1 1149/1 1148/1
f 1141/1 1142/1 1150/1 1149/1
f 1142/1 1143/1 1151/1 1150/1
f 1143/1 1144/1 1152/1 1151/1
f 1144/1 1137/1 1145/1 1152/1
f 1145/1 1146/1 1154/1 1153/1
f 1146/1 1147/1 1155/1 1154/1
f 1147/1 1148/1 1156/1 1155/1
f 1148/1 1149/1 1157/1 1156/1
f 1149/1 1150/1 1158/1 1157/1
f 1150/1 1151/1 1159/1 1158/1
f 1151/1 1152/1 1160/1 1159/1
f 1152/1 1145/1 1153/1 1160/1
f 1153/1 1154/1 1162/1 1161/1
f 1154/1 1155/1 1163/1 1162/1
f 1155/1 1156/1 1164/1 1163/1
f 1156/1 1157/1 1165/1 1164/1
f 1157/1 1158/1 1166/1 1165/1
f 1158/1 1159/1 1167/1 1166/1
f 1159/1 1160/1 1168/1 1167/1
f 1160/1 1153/1 1161/1 1168/1
f 1161/1 1162/1 1170/1 1169/1
f 1162/1 1163/1 1171/1 1170/1
f 1163/1 1164/1 1172/1 1171/1
f 1164/1 1165/1 1173/1 1172/1
f 1165/1 1166/1 1174/1 1173/1
f 1166/1 1167/1 1175/1 1174/1
f 1167/1 1168/1 1176/1 1175/1
f 1168/1 1161/1 1169/1 1176/1
f 1169/1 1170/1 1178/1 1177/1
f 1170/1 1171/1 1179/1 1178/1
f 1171/1 1172/1 1180/1 1179/1
f 1172/1 1173/1 1181/1 1180/1
f 1173/1 1174/1 1182/1 1181/1
f 1174/1 1175/1 1183/1 1182/1
f 1175/1 1176/1 1184/1 1183/1
f 1176/1 1169/1 1177/1 1184/1
f 1177/1 1178/1 1186/1 1185/1
f 1178/1 1179/1 1187/1 1186/1
f 1179/1 1180/1 1188/1 1187/1
f 1180/1 1181/1 1189/1 1188/1
f 1181/1 1182/1 1190/1 1189/1
f 1182/1 1183/1 1191/1 1190/1
f 1183/1 1184/1 1192/1 1191/1
f 1184/1 1177/1 1185/1 1192/1
f 1185/1 1186/1 1194/1 1193/1
f 1186/1 1187/1 1195/1 1194/1
f 1187/1 1188/1 1196/1 1195/1
f 1188/1 1189/1 1197/1 1196/1
f 1189/1 1190/1 1198/1 1197/1
f 1190/1 1191/1 1199/1 1198/1
f 1191/1 1192/1 1200/1 1199/1
f 1192/1 1185/1 1193/1 1200/1
f 8/1 7/1 6/1 5/1 4/1 3/1 2/1 1/1
f 1193/1 1194/1 1195/1 1196/1 1197/1 1198/1 1199/1 1200/1